<?xml version="1.0" encoding="utf-8"?>
<svg id="master-artboard" viewBox="0 0 1400 980" version="1.1" xmlns="http://www.w3.org/2000/svg" x="0px" y="0px" style="enable-background:new 0 0 1400 980;" width="1400px" height="980px"><rect id="ee-background" x="0" y="0" width="1400" height="980" style="fill: white; fill-opacity: 0; pointer-events: none;"/><g id="Background" transform="matrix(0.875, 0, 0, 0.875, 0.000014046901867459383, 70.71807644085516)">
	<path d="M 0 0 H 1600 V 900 H 0 V 0 Z" class="st0" style="fill: rgb(255, 255, 255);"/>
	<linearGradient id="SVGID_1_" gradientUnits="userSpaceOnUse" x1="-0.9439" y1="1.6864" x2="1600.944" y2="898.3136">
		<stop offset="0" style="stop-color:#182228"/>
		<stop offset="1" style="stop-color:#3F4C66"/>
	</linearGradient>
	<path d="M 0 0 H 1600 V 900 H 0 V 0 Z" class="st1" style="fill: url('#SVGID_1_');" transform="matrix(1, 0, 0, 1, -1.4589666245570925, -2.917933249114327)"/>
	<path d="M 158.899997 284.600006 A 2.7 2.7 0 0 1 156.199997 287.300006 A 2.7 2.7 0 0 1 153.499997 284.600006 A 2.7 2.7 0 0 1 156.199997 281.900006 A 2.7 2.7 0 0 1 158.899997 284.600006 Z" class="st0" style="fill: rgb(255, 255, 255);"/>
	<path d="M 215.000003 48.700001 A 2.7 2.7 0 0 1 212.300003 51.400001 A 2.7 2.7 0 0 1 209.600003 48.700001 A 2.7 2.7 0 0 1 212.300003 46.000001 A 2.7 2.7 0 0 1 215.000003 48.700001 Z" class="st0" style="fill: rgb(255, 255, 255);"/>
	<path d="M 467.599994 155.199997 A 2.7 2.7 0 0 1 464.899994 157.899997 A 2.7 2.7 0 0 1 462.199994 155.199997 A 2.7 2.7 0 0 1 464.899994 152.499997 A 2.7 2.7 0 0 1 467.599994 155.199997 Z" class="st0" style="fill: rgb(255, 255, 255);"/>
	<path d="M 882.999988 34 A 2.7 2.7 0 0 1 880.299988 36.7 A 2.7 2.7 0 0 1 877.599988 34 A 2.7 2.7 0 0 1 880.299988 31.3 A 2.7 2.7 0 0 1 882.999988 34 Z" class="st0" style="fill: rgb(255, 255, 255);"/>
	<path d="M 1255.7 43.299999 A 2.7 2.7 0 0 1 1253 45.999999 A 2.7 2.7 0 0 1 1250.3 43.299999 A 2.7 2.7 0 0 1 1253 40.599999 A 2.7 2.7 0 0 1 1255.7 43.299999 Z" class="st0" style="fill: rgb(255, 255, 255);"/>
	<path d="M 1394.799975 46.799999 A 6.2 6.2 0 0 1 1388.599976 52.999999 A 6.2 6.2 0 0 1 1382.399976 46.799999 A 6.2 6.2 0 0 1 1388.599976 40.599999 A 6.2 6.2 0 0 1 1394.799975 46.799999 Z" class="st0" style="fill: rgb(255, 255, 255);"/>
	<path d="M 1570.000049 343.299988 A 6.2 6.2 0 0 1 1563.800049 349.499988 A 6.2 6.2 0 0 1 1557.600049 343.299988 A 6.2 6.2 0 0 1 1563.800049 337.099988 A 6.2 6.2 0 0 1 1570.000049 343.299988 Z" class="st0" style="fill: rgb(255, 255, 255);"/>
	<path d="M 1102.600024 95.5 A 6.2 6.2 0 0 1 1096.400024 101.7 A 6.2 6.2 0 0 1 1090.200025 95.5 A 6.2 6.2 0 0 1 1096.400024 89.3 A 6.2 6.2 0 0 1 1102.600024 95.5 Z" class="st0" style="fill: rgb(255, 255, 255);"/>
	<path d="M 576.600024 43.299999 A 6.2 6.2 0 0 1 570.400024 49.499999 A 6.2 6.2 0 0 1 564.200025 43.299999 A 6.2 6.2 0 0 1 570.400024 37.099999 A 6.2 6.2 0 0 1 576.600024 43.299999 Z" class="st0" style="fill: rgb(255, 255, 255);"/>
	<path d="M 121.500003 429.700012 A 6.2 6.2 0 0 1 115.300003 435.900012 A 6.2 6.2 0 0 1 109.100003 429.700012 A 6.2 6.2 0 0 1 115.300003 423.500012 A 6.2 6.2 0 0 1 121.500003 429.700012 Z" class="st0" style="fill: rgb(255, 255, 255);"/>
	<path d="M 544.900012 262.600006 A 6.2 6.2 0 0 1 538.700012 268.800006 A 6.2 6.2 0 0 1 532.500012 262.600006 A 6.2 6.2 0 0 1 538.700012 256.400006 A 6.2 6.2 0 0 1 544.900012 262.600006 Z" class="st0" style="fill: rgb(255, 255, 255);"/>
	<path d="M 300.400012 229.5 A 6.2 6.2 0 0 1 294.200012 235.7 A 6.2 6.2 0 0 1 288.000012 229.5 A 6.2 6.2 0 0 1 294.200012 223.3 A 6.2 6.2 0 0 1 300.400012 229.5 Z" class="st0" style="fill: rgb(255, 255, 255);"/>
	<path d="M 1268.000049 378.200012 A 6.2 6.2 0 0 1 1261.800049 384.400012 A 6.2 6.2 0 0 1 1255.600049 378.200012 A 6.2 6.2 0 0 1 1261.800049 372.000012 A 6.2 6.2 0 0 1 1268.000049 378.200012 Z" class="st0" style="fill: rgb(255, 255, 255);"/>
	<path d="M 1490.399951 191.800003 A 2.7 2.7 0 0 1 1487.699951 194.500003 A 2.7 2.7 0 0 1 1484.999951 191.800003 A 2.7 2.7 0 0 1 1487.699951 189.100003 A 2.7 2.7 0 0 1 1490.399951 191.800003 Z" class="st0" style="fill: rgb(255, 255, 255);"/>
	<path d="M 1296.500049 246.399994 A 2.7 2.7 0 0 1 1293.800049 249.099994 A 2.7 2.7 0 0 1 1291.100049 246.399994 A 2.7 2.7 0 0 1 1293.800049 243.699994 A 2.7 2.7 0 0 1 1296.500049 246.399994 Z" class="st0" style="fill: rgb(255, 255, 255);"/>
	<path d="M 1459.799976 450 A 2.7 2.7 0 0 1 1457.099976 452.7 A 2.7 2.7 0 0 1 1454.399976 450 A 2.7 2.7 0 0 1 1457.099976 447.3 A 2.7 2.7 0 0 1 1459.799976 450 Z" class="st0" style="fill: rgb(255, 255, 255);"/>
	<path d="M 399.7 338.700012 A 2.7 2.7 0 0 1 397 341.400012 A 2.7 2.7 0 0 1 394.3 338.700012 A 2.7 2.7 0 0 1 397 336.000012 A 2.7 2.7 0 0 1 399.7 338.700012 Z" class="st0" style="fill: rgb(255, 255, 255);"/>
	<path d="M 738.999988 369.399994 A 2.7 2.7 0 0 1 736.299988 372.099994 A 2.7 2.7 0 0 1 733.599988 369.399994 A 2.7 2.7 0 0 1 736.299988 366.699994 A 2.7 2.7 0 0 1 738.999988 369.399994 Z" class="st0" style="fill: rgb(255, 255, 255);"/>
	
</g></svg>