<?xml version="1.0" encoding="utf-8"?>
<svg id="master-artboard" viewBox="0 0 1400 980" version="1.1" xmlns="http://www.w3.org/2000/svg" x="0px" y="0px" style="enable-background:new 0 0 1400 980;" width="1400px" height="980px" xmlns:xlink="http://www.w3.org/1999/xlink"><g id="Background" transform="matrix(0.875, 0, 0, 0.875, -3.7577876079522525, 6.062751832760512)">
	
	<linearGradient id="SVGID_1_" gradientUnits="userSpaceOnUse" x1="-0.9439" y1="1.6864" x2="1600.944" y2="898.3136">
		<stop offset="0" style="stop-color:#182228"/>
		<stop offset="1" style="stop-color:#3F4C66"/>
	</linearGradient>
	
	<path d="M 158.899997 284.600006 A 2.7 2.7 0 0 1 156.199997 287.300006 A 2.7 2.7 0 0 1 153.499997 284.600006 A 2.7 2.7 0 0 1 156.199997 281.900006 A 2.7 2.7 0 0 1 158.899997 284.600006 Z" class="st0" style="fill: rgb(255, 255, 255);"/>
	<path d="M 215.000003 48.700001 A 2.7 2.7 0 0 1 212.300003 51.400001 A 2.7 2.7 0 0 1 209.600003 48.700001 A 2.7 2.7 0 0 1 212.300003 46.000001 A 2.7 2.7 0 0 1 215.000003 48.700001 Z" class="st0" style="fill: rgb(255, 255, 255);"/>
	<path d="M 467.599994 155.199997 A 2.7 2.7 0 0 1 464.899994 157.899997 A 2.7 2.7 0 0 1 462.199994 155.199997 A 2.7 2.7 0 0 1 464.899994 152.499997 A 2.7 2.7 0 0 1 467.599994 155.199997 Z" class="st0" style="fill: rgb(255, 255, 255);"/>
	<path d="M 882.999988 34 A 2.7 2.7 0 0 1 880.299988 36.7 A 2.7 2.7 0 0 1 877.599988 34 A 2.7 2.7 0 0 1 880.299988 31.3 A 2.7 2.7 0 0 1 882.999988 34 Z" class="st0" style="fill: rgb(255, 255, 255);"/>
	<path d="M 1255.7 43.299999 A 2.7 2.7 0 0 1 1253 45.999999 A 2.7 2.7 0 0 1 1250.3 43.299999 A 2.7 2.7 0 0 1 1253 40.599999 A 2.7 2.7 0 0 1 1255.7 43.299999 Z" class="st0" style="fill: rgb(255, 255, 255);"/>
	<path d="M 1394.799975 46.799999 A 6.2 6.2 0 0 1 1388.599976 52.999999 A 6.2 6.2 0 0 1 1382.399976 46.799999 A 6.2 6.2 0 0 1 1388.599976 40.599999 A 6.2 6.2 0 0 1 1394.799975 46.799999 Z" class="st0" style="fill: rgb(255, 255, 255);"/>
	<path d="M 1570.000049 343.299988 A 6.2 6.2 0 0 1 1563.800049 349.499988 A 6.2 6.2 0 0 1 1557.600049 343.299988 A 6.2 6.2 0 0 1 1563.800049 337.099988 A 6.2 6.2 0 0 1 1570.000049 343.299988 Z" class="st0" style="fill: rgb(255, 255, 255);"/>
	<path d="M 1102.600024 95.5 A 6.2 6.2 0 0 1 1096.400024 101.7 A 6.2 6.2 0 0 1 1090.200025 95.5 A 6.2 6.2 0 0 1 1096.400024 89.3 A 6.2 6.2 0 0 1 1102.600024 95.5 Z" class="st0" style="fill: rgb(255, 255, 255);"/>
	<path d="M 576.600024 43.299999 A 6.2 6.2 0 0 1 570.400024 49.499999 A 6.2 6.2 0 0 1 564.200025 43.299999 A 6.2 6.2 0 0 1 570.400024 37.099999 A 6.2 6.2 0 0 1 576.600024 43.299999 Z" class="st0" style="fill: rgb(255, 255, 255);"/>
	<path d="M 121.500003 429.700012 A 6.2 6.2 0 0 1 115.300003 435.900012 A 6.2 6.2 0 0 1 109.100003 429.700012 A 6.2 6.2 0 0 1 115.300003 423.500012 A 6.2 6.2 0 0 1 121.500003 429.700012 Z" class="st0" style="fill: rgb(255, 255, 255);"/>
	<path d="M 544.900012 262.600006 A 6.2 6.2 0 0 1 538.700012 268.800006 A 6.2 6.2 0 0 1 532.500012 262.600006 A 6.2 6.2 0 0 1 538.700012 256.400006 A 6.2 6.2 0 0 1 544.900012 262.600006 Z" class="st0" style="fill: rgb(255, 255, 255);"/>
	<path d="M 300.400012 229.5 A 6.2 6.2 0 0 1 294.200012 235.7 A 6.2 6.2 0 0 1 288.000012 229.5 A 6.2 6.2 0 0 1 294.200012 223.3 A 6.2 6.2 0 0 1 300.400012 229.5 Z" class="st0" style="fill: rgb(255, 255, 255);"/>
	<path d="M 1268.000049 378.200012 A 6.2 6.2 0 0 1 1261.800049 384.400012 A 6.2 6.2 0 0 1 1255.600049 378.200012 A 6.2 6.2 0 0 1 1261.800049 372.000012 A 6.2 6.2 0 0 1 1268.000049 378.200012 Z" class="st0" style="fill: rgb(255, 255, 255);"/>
	<path d="M 1490.399951 191.800003 A 2.7 2.7 0 0 1 1487.699951 194.500003 A 2.7 2.7 0 0 1 1484.999951 191.800003 A 2.7 2.7 0 0 1 1487.699951 189.100003 A 2.7 2.7 0 0 1 1490.399951 191.800003 Z" class="st0" style="fill: rgb(255, 255, 255);"/>
	<path d="M 1296.500049 246.399994 A 2.7 2.7 0 0 1 1293.800049 249.099994 A 2.7 2.7 0 0 1 1291.100049 246.399994 A 2.7 2.7 0 0 1 1293.800049 243.699994 A 2.7 2.7 0 0 1 1296.500049 246.399994 Z" class="st0" style="fill: rgb(255, 255, 255);"/>
	<path d="M 1459.799976 450 A 2.7 2.7 0 0 1 1457.099976 452.7 A 2.7 2.7 0 0 1 1454.399976 450 A 2.7 2.7 0 0 1 1457.099976 447.3 A 2.7 2.7 0 0 1 1459.799976 450 Z" class="st0" style="fill: rgb(255, 255, 255);"/>
	<path d="M 399.7 338.700012 A 2.7 2.7 0 0 1 397 341.400012 A 2.7 2.7 0 0 1 394.3 338.700012 A 2.7 2.7 0 0 1 397 336.000012 A 2.7 2.7 0 0 1 399.7 338.700012 Z" class="st0" style="fill: rgb(255, 255, 255);"/>
	<path d="M 738.999988 369.399994 A 2.7 2.7 0 0 1 736.299988 372.099994 A 2.7 2.7 0 0 1 733.599988 369.399994 A 2.7 2.7 0 0 1 736.299988 366.699994 A 2.7 2.7 0 0 1 738.999988 369.399994 Z" class="st0" style="fill: rgb(255, 255, 255);"/>
	<g transform="matrix(1, 0, 0, 1, 4.29462968896928, 93.05030543044258)">
		<defs>
			<path d="M 0 0 H 1600 V 900 H 0 V 0 Z" id="SVGID_2_"/>
		</defs>
		<clipPath id="SVGID_3_">
			<use style="overflow:visible;" xlink:href="#SVGID_2_"/>
		</clipPath>
		<g class="st2" style="clip-path: url('#SVGID_3_');">
			<linearGradient id="SVGID_4_" gradientUnits="userSpaceOnUse" x1="800" y1="900.5861" x2="800" y2="382.0167">
				<stop offset="0" style="stop-color:#204887"/>
				<stop offset="1" style="stop-color:#54B2CF"/>
			</linearGradient>
			<path d="M 1948.099976 1535.900024 A 1148.099976 1148.099976 0 0 1 800 2684 A 1148.099976 1148.099976 0 0 1 -348.099976 1535.900024 A 1148.099976 1148.099976 0 0 1 800 387.800049 A 1148.099976 1148.099976 0 0 1 1948.099976 1535.900024 Z" class="st3" style="fill: url('#SVGID_4_');"/>
			<g>
				<path class="st4" d="M-85.9,807.9c13-10.3,25.9-20.6,38.8-30.9c12.2-2.7,24.4-5.4,36.6-8.1c8.8-5.5,17.6-11,26.4-16.5&#10;&#9;&#9;&#9;&#9;&#9;c3-4.6,5.9-9.2,8.9-13.7c4.2-3.2,8.5-6.3,12.7-9.5c-3-1.3-6-2.7-8.9-4c-5.4,0.3-10.7,0.6-16.1,0.9c-7.7,7.4-15.4,14.7-23.1,22.1&#10;&#9;&#9;&#9;&#9;&#9;c-9.2,3.8-18.4,7.6-27.6,11.5c0.9-3.8,1.9-7.5,2.8-11.3c-18.3,19.4-35.9,39.5-52.9,60.1C-87.5,808.4-86.7,808.1-85.9,807.9z" style="fill: rgb(70, 196, 140);"/>
				<path class="st4" d="M-259.6,1190.1c4.4-14.5,8.9-29,13.7-43.6c12-3.9,23.9-7.7,35.9-11.6c13.8-8.8,27.6-17.7,41.3-26.6&#10;&#9;&#9;&#9;&#9;&#9;c0,0,24.9-3.4,26-4.5c1.1-1.1,5.4-10.5,5.4-10.5c-3.8-0.5-7.7-1-11.5-1.5c25.7-14.1,51.2-28.3,76.7-42.6c0,0-14.9,17.1-14.3,18&#10;&#9;&#9;&#9;&#9;&#9;c0.6,0.9,9.9,6.8,10,6.8c26.9-13,53.7-26.1,80.3-39.2c0,0,5.4-19.2,3.8-19.3c-1.6-0.1-9.8-0.5-10.7,0&#10;&#9;&#9;&#9;&#9;&#9;c-0.9,0.5-26.4,16.3-26.4,16.3c-2.1-4.7-4.1-9.4-6.1-14.1c6.1-7.7,12.2-15.4,18.2-23.1c0.5-2.8,1-5.7,1.5-8.5&#10;&#9;&#9;&#9;&#9;&#9;c3.2,0.8,6.5,1.6,9.7,2.4c0,0,16.6,0.6,16.8-1c0.2-1.6,2.8-17.9,3.3-17.5c0.5,0.3,25.6,3.1,25.6,3.1&#10;&#9;&#9;&#9;&#9;&#9;c10.1-8.4,20.2-16.9,30.3-25.3c11-5.3,22-10.6,32.9-15.9c0,0,7-18.7,6.3-18.6c-1,0-32.4-33-32.1-32.9c0,0,10.3-12.8,9.8-13.8&#10;&#9;&#9;&#9;&#9;&#9;c-0.6-1,3.9-44.4,4.1-44.4c-5,0.8-10,1.6-15.1,2.4c-11,10.9-22.1,21.8-33.2,32.7c-4.5-3.1-9-6.2-13.4-9.2c0,0,19-17.7,18.5-17.8&#10;&#9;&#9;&#9;&#9;&#9;c-0.5-0.1-0.6-12.9-0.6-12.9c-5.4-0.2-10.9-0.3-16.3-0.4c-4.3-4.1-8.4-8.1-12.6-12.1c-13.1,4-26.2,8-39.3,12&#10;&#9;&#9;&#9;&#9;&#9;c0,0-21.5,33.7-22.4,34.2c-0.9,0.5-18.3,12.1-18.3,12.1c1.1,6.1,2.3,12.3,3.5,18.5c-9.3,8.6-18.5,17.1-27.8,25.6&#10;&#9;&#9;&#9;&#9;&#9;c-7.8,4.3-15.7,8.6-23.6,12.9c-5.4,0.9-10.8,1.7-16.2,2.6c-5.8,12.8-11.4,25.6-16.9,38.3c0,0-19.6,13.4-20.7,13.7&#10;&#9;&#9;&#9;&#9;&#9;c-1.1,0.3-10.5-4.8-10.2-6c0.2-1.2,10.4-25.9,10.4-25.9c4.8-5.2,9.6-10.5,14.5-15.8c0,0,6.2-7.6,4.5-7.4&#10;&#9;&#9;&#9;&#9;&#9;c-1.7,0.2-26.9,3.3-26.9,3.3c0,0,0,0,0,0c-58.1,91.9-103.5,192.6-133.8,299.7C-289.8,1212.1-274.7,1201.1-259.6,1190.1z" style="fill: rgb(70, 196, 140);"/>
				<path class="st4" d="M61.6,2392.9c1.7-2.5,3.3-5,5-7.5c-2.2-5-4.3-10-6.5-14.9c-9.5-5.5-19-11-28.6-16.5c2.5-4,5-8,7.6-12.1&#10;&#9;&#9;&#9;&#9;&#9;c-4.9-12.3-9.6-24.7-14.2-37c-7.7-7.3-15.3-14.5-23-21.7c10.5,1.7,21,3.3,31.4,4.9c-4.4-10.8-8.7-21.6-13-32.3&#10;&#9;&#9;&#9;&#9;&#9;c13.2,1,26.4,1.9,39.6,2.8c0.9-6.7,1.8-13.3,2.8-20c-2.5-4.6-5.1-9.1-7.6-13.7c-9.1-9-18.1-17.9-27.2-26.9&#10;&#9;&#9;&#9;&#9;&#9;c14.2,3.5,28.3,7,42.4,10.5c6.9-19.1,14.4-38.3,22.5-57.7c0.7-11,1.6-22.1,2.6-33.1c2.5-1.6,5-3.3,7.6-4.9&#10;&#9;&#9;&#9;&#9;&#9;c-1.3-5.6-2.6-11.2-3.9-16.8c-4.8-6.6-9.7-13.1-14.5-19.6c13.7-12.5,27.8-25.1,42.2-37.9c9,1.6,18,3.3,27,4.9&#10;&#9;&#9;&#9;&#9;&#9;c6.3-17,12.9-34.1,19.9-51.3c-3-32.3-5.3-64.6-7.1-96.9c13.1-19,26.6-38.1,40.4-57.3c-1.1-11.3-2.1-22.5-3-33.8&#10;&#9;&#9;&#9;&#9;&#9;c-4.8-10.2-9.7-20.5-14.4-30.7c-6-0.5-12-0.9-18.1-1.4c-13.1-10.7-26.1-21.4-39.1-32.1c-19.7-1.3-39.5-2.6-59.3-4&#10;&#9;&#9;&#9;&#9;&#9;c0,0-29-30.6-29.6-30.6c-0.6,0-21,1.4-21,1.4c0,0-6.2-11.1-6.8-11.1c-0.6,0-27.4,0.3-27.4,0.3c4-5.5,8-11,12.1-16.5&#10;&#9;&#9;&#9;&#9;&#9;c0,0-0.7-8.1-1.6-8.1c-0.9,0-16.1-1.5-16.1-1.5c-2.1-11.6-4.2-23.2-6.1-34.7c0,0-35.2-22.5-36.9-22.6&#10;&#9;&#9;&#9;&#9;&#9;c-1.7-0.2-42.8-0.7-42.8-0.7c-0.1-0.1-33.1-43.9-34.4-43.8c-1.5,0-15.7-3.3-15.7-3.3c-1.5-3.2-3-6.5-4.5-9.7&#10;&#9;&#9;&#9;&#9;&#9;c0,0,10.1-16.4,9.5-16.4c-0.7,0-42.6-3.9-42.6-3.8c0,0-17.8,12.9-18.9,12.9c-1.1,0-39.8-6.7-41.6-7.1&#10;&#9;&#9;&#9;&#9;&#9;c-1.8-0.4-24.5-23.9-25.1-23.8c-0.7,0.1-64,23.1-71.7,25.8c0.7,128,22.3,251,61.6,365.8c22.1,13.5,48.6,29.4,48.6,29.5&#10;&#9;&#9;&#9;&#9;&#9;c2.2,3.3,4.4,6.5,6.6,9.8c4.5,1.3,9,2.6,13.4,3.9c4.6,6.9,9.2,13.9,13.9,20.8c2.9,12.2,5.9,24.3,9,36.5&#10;&#9;&#9;&#9;&#9;&#9;c6.6,20.9,13.6,41.8,21,62.7c11.5,28.8,23.7,57.6,36.5,86.4c5.7,20,11.7,40,18.3,60c4.1,7.6,8.2,15.2,12.4,22.8&#10;&#9;&#9;&#9;&#9;&#9;c11.3,14.6,23,28.9,35.1,42.9c3.2,2.3,6.3,4.5,9.5,6.8c2,3.7,4.1,7.4,6.2,11.1c39.2,43.8,81.6,84.5,127,121.8&#10;&#9;&#9;&#9;&#9;&#9;c-0.5-3.5-1-7-1.5-10.5C66.9,2405.9,64.2,2399.4,61.6,2392.9z" style="fill: rgb(70, 196, 140);"/>
				<path class="st4" d="M-22.2,743.3c0,0,4.5-8.9,3-8.9c-0.4,0-1.5,0-2.8,0c-3.9,4-7.7,8-11.5,12&#10;&#9;&#9;&#9;&#9;&#9;C-29.7,745.4-25.9,744.3-22.2,743.3z" style="fill: rgb(70, 196, 140);"/>
				<path class="st4" d="M1943.8,1615.1c0,0-2.2,7.9-0.5,9.4c0.4,0.4,0.9,1.1,1.3,1.9c0.3-3.6,0.5-7.3,0.8-10.9&#10;&#9;&#9;&#9;&#9;&#9;C1944.8,1615.3,1944.3,1615.2,1943.8,1615.1z" style="fill: rgb(70, 196, 140);"/>
				<path class="st4" d="M503,670.9c6.6-2.1-23.3-2.9-28.6-4.2c-5.3-1.4,15.6-9.5,15.6-9.5c9.1,2.3,18.2,4.5,27.4,6.9&#10;&#9;&#9;&#9;&#9;&#9;c1.8-5.5,3.5-11,5.3-16.5c-7.1-7-14.1-14-21-20.9c7.2,2.4,14.5,4.8,21.7,7.2c3.6-2.8,7.3-5.6,10.9-8.3&#10;&#9;&#9;&#9;&#9;&#9;c8.7-6.2,17.3-12.4,25.9-18.6c2.2-6.1,4.4-12.2,6.7-18.4c-1.5-5.1-3-10.3-4.4-15.4c4-4.7,8-9.5,12-14.2&#10;&#9;&#9;&#9;&#9;&#9;c-0.3-2.6-0.6-5.1-0.9-7.7c0.1-0.1,41.1-13.4,45-14.4c4-1.1,1.3-11.3,1.4-11.3c-13.6,2.1-27.3,4.3-41,6.5&#10;&#9;&#9;&#9;&#9;&#9;c-8.1,3.9-16.3,7.8-24.5,11.8c0-2.5-0.1-4.9-0.1-7.4c0,0-6.9-1.4-11.5-0.5c6.3-3.2,20.1-10.5,25.5-11.4&#10;&#9;&#9;&#9;&#9;&#9;c-6-0.5-23.1-2.3-23.1-2.3c-1.1-2.2-2.2-4.4-3.3-6.6c-10.1,0.7-20.2,1.5-30.3,2.3c-5.7,2.2-11.4,4.3-17.2,6.5&#10;&#9;&#9;&#9;&#9;&#9;c-9.5,0.8-19,1.6-28.4,2.5c-4.3,0.4-8.6,0.8-12.9,1.2c-6,3.2-12.1,6.5-18.2,9.7c-3.7-2.3-7.3-4.5-10.9-6.8c-3.8,4-7.5,8-11.3,12&#10;&#9;&#9;&#9;&#9;&#9;c-1.9-3.4-3.7-6.8-5.5-10.2c-7.5,6-15.1,12.1-22.7,18.2c-6.1-4.5-12.1-9-18.1-13.5c-6.4,2.7-12.8,5.4-19.3,8.1&#10;&#9;&#9;&#9;&#9;&#9;c-10.9,5.7-21.9,11.4-33,17.1c-10.3,2.1-20.7,4.3-31,6.5c-2.2,4.6-4.4,9.1-6.6,13.7c-19,3.3-38.1,6.8-57.2,10.4&#10;&#9;&#9;&#9;&#9;&#9;c-2.4,6.1-4.7,12.2-7,18.3c-0.1,0,11.3,14.2,13.8,14.7c2.4,0.5,27.3-11.6,27.3-11.6c0,0,28.6,3.6,30.4,4.3&#10;&#9;&#9;&#9;&#9;&#9;c1.7,0.6,0.3,24.3,0.3,24.3c-4.3,8.4-8.6,16.7-12.9,25.1c6.1-0.7,12.1-1.3,18.2-2c-0.2,6.8-0.3,13.6-0.3,20.4&#10;&#9;&#9;&#9;&#9;&#9;c-2.4,6.3-4.8,12.5-7.3,18.8c-4.2-0.7-8.4-1.4-12.6-2c-7,6.7-14,13.4-21,20.1c-1.7,5.9-3.3,11.8-5,17.6c-2,7.3-4,14.6-6,21.9&#10;&#9;&#9;&#9;&#9;&#9;c0.7,12.5,1.5,25,2.5,37.6c0,0,15.5-0.5,21.3-0.1c5.8,0.4-2.2,9.3-2.2,9.3c8.5,1.5,17,3.1,25.5,4.6c0,0,21.6-34.1,22.9-36.7&#10;&#9;&#9;&#9;&#9;&#9;c1.3-2.6,14.7-10.3,14.7-10.3c6-8.2,11.9-16.5,17.8-24.8c0.1,0,47.2-12.8,50.8-13.1c3.7-0.3,33.2-31,33.2-31&#10;&#9;&#9;&#9;&#9;&#9;c0,0,26.9-0.2,38.2-2.6C473,694,496.5,673,503,670.9z" style="fill: rgb(70, 196, 140);"/>
				<path class="st4" d="M569.9,524.7c-0.4-0.1-0.9,0-1.5,0.1C570.3,524.9,571.1,524.9,569.9,524.7z" style="fill: rgb(70, 196, 140);"/>
				<path class="st4" d="M1491,675.7c-2.5-1.1-5.1-2.3-7.6-3.4c0.1-0.1,16.1-19.5,17.5-19.6c1.5-0.1-28.6-17.9-28.6-17.9&#10;&#9;&#9;&#9;&#9;&#9;c-11.7-1.2-23.3-2.3-35-3.4c-5-4-10-8-14.9-11.9c-9.9-3.6-19.8-7.2-29.7-10.8c-1.2,2.5-2.4,5-3.7,7.6c-0.9,4.5-1.8,9-2.8,13.5&#10;&#9;&#9;&#9;&#9;&#9;c-6.7-0.9-13.4-1.8-20-2.7c-5.1-3.2-10.2-6.4-15.3-9.6c-1.5,2.3-2.9,4.7-4.4,7.1c-7.1-0.9-14.3-1.8-21.4-2.6&#10;&#9;&#9;&#9;&#9;&#9;c-4.7,2.8-9.3,5.6-14.1,8.5c7.1,4.7,14.1,9.5,21.3,14.2c-15.6-1.8-31.2-3.5-46.8-5.2c13.6,10.1,27.4,20.1,41.3,30.2&#10;&#9;&#9;&#9;&#9;&#9;c-14.5-4-28.9-8-43.3-11.9c5.3,5.5,10.7,10.9,16.1,16.4c-5.5-0.6-11-1.1-16.5-1.6c-4.3-4.1-8.6-8.3-12.8-12.4&#10;&#9;&#9;&#9;&#9;&#9;c-4.4-4.7-8.8-9.4-13.2-14.1c-2.2,4.5-4.5,8.9-6.7,13.4c5.4,3.5,10.9,7.1,16.4,10.6c3.1,6.8,6.2,13.5,9.3,20.3&#10;&#9;&#9;&#9;&#9;&#9;c11.8,1.5,23.6,3,35.5,4.6c8.6,9.1,17.2,18.1,25.9,27.2c-4.7-0.6-9.4-1.2-14.1-1.8c-4.2-4.6-8.3-9.3-12.4-13.9&#10;&#9;&#9;&#9;&#9;&#9;c-4.6-0.6-9.1-1.1-13.7-1.7c1.9,7.2,3.7,14.4,5.5,21.6c-1.5,1.9-3,3.9-4.6,5.8c-5.4,0.2-10.8,0.4-16.2,0.7&#10;&#9;&#9;&#9;&#9;&#9;c-6.9-2.7-13.8-5.3-20.7-8c1.3-1.7,2.5-3.4,3.8-5.1c5.3,1.1,10.7,2.3,16,3.4c2.5-3.9,4.9-7.9,7.3-11.8&#10;&#9;&#9;&#9;&#9;&#9;c-14.5-15.4-28.8-30.8-43-46.2c-2.9-6.2-5.9-12.4-8.8-18.7c-8.6-1.6-17.2-3.2-25.8-4.8c1,4.7,1.9,9.4,2.9,14&#10;&#9;&#9;&#9;&#9;&#9;c-4.7,1.7-9.5,3.4-14.3,5.1c0,0,13,5.7,14.5,5c1.6-0.7,6.1,14.7,6.1,14.7c8.7,4.6,17.4,9.2,26.1,13.9c1.4,3,2.7,6.1,4.1,9.1&#10;&#9;&#9;&#9;&#9;&#9;c-3.1-1.5-6.2-3-9.3-4.5c-5.3-0.9-10.7-1.7-16-2.6c-8.6-4.7-17.2-9.5-25.8-14.2c-9.6-3-19.1-5.9-28.6-8.9&#10;&#9;&#9;&#9;&#9;&#9;c2.4,6.9,4.8,13.9,7.2,20.8c-4.5-1.4-9-2.9-13.5-4.3c-10.5,1-21,2-31.5,3c-1.5-1.2-3-2.5-4.5-3.7c-4.2-1.1-8.4-2.2-12.5-3.3&#10;&#9;&#9;&#9;&#9;&#9;c-10.7,6.3-21.6,12.7-32.6,19.1c-5.8,0.1-11.6,0.3-17.5,0.4c-1.9-1.8-3.8-3.6-5.7-5.4c2.4-4.6,4.7-9.2,7.1-13.8&#10;&#9;&#9;&#9;&#9;&#9;c-8.8-2.4-17.6-4.9-26.4-7.3c5.8,12.9,11.7,25.7,17.6,38.6c-6.6-0.9-13.2-1.7-19.8-2.6c-6.3-6.9-12.6-13.7-18.8-20.6&#10;&#9;&#9;&#9;&#9;&#9;c-11.5-4.8-22.9-9.5-34.2-14.2c-21.5-8.8-42.8-17.5-63.9-26.1c-15.1-1.7-30.2-3.3-45.2-4.8c-17.2,6.7-34.5,13.5-52.1,20.4&#10;&#9;&#9;&#9;&#9;&#9;c-4.2,5.1-8.4,10.1-12.7,15.2c-6.2,6.8-12.4,13.6-18.7,20.4c0,5.7-0.1,11.3-0.1,17c-20.9,13.1-42.3,26.3-64,39.5&#10;&#9;&#9;&#9;&#9;&#9;c0,0-7.5,22.7-7.5,24.4c-0.1,1.7,10.8,2.9,10.8,2.9c-1.4,9-2.8,18-4.2,27c0,0,6.6,8.2,18,9.4c11.4,1.2,14.6-4.9,15.7-5.3&#10;&#9;&#9;&#9;&#9;&#9;c1.2-0.4,11.2-12.7,11.2-12.7c3.3-1.5,6.6-2.9,9.9-4.4c6.6,9.8,13.3,19.7,20,29.5c0.3,9.4,0.5,18.8,0.8,28.3&#10;&#9;&#9;&#9;&#9;&#9;c0,0,11.6,0.4,12.7,0c1.2-0.4,9.2-10,9.2-10c6.7-1.7,13.3-3.4,19.9-5.1c0.2-2.5,0.4-4.9,0.6-7.4c-1.8-2-3.6-4.1-5.5-6.1&#10;&#9;&#9;&#9;&#9;&#9;c0.4-7,0.8-13.9,1.2-20.9c4,0.2,8.1,0.3,12.1,0.5c2.3-5.8,4.5-11.6,6.8-17.3c-6.3-3.2-12.7-6.5-19-9.7c0-7.4,0-14.8,0-22.2&#10;&#9;&#9;&#9;&#9;&#9;c8.9-7.2,17.7-14.4,26.4-21.5c0.6-3.8,1.2-7.5,1.8-11.3c2.5-3.3,4.9-6.6,7.3-9.9c6.6-1.7,13.2-3.3,19.8-4.9&#10;&#9;&#9;&#9;&#9;&#9;c2.3,5,4.6,9.9,6.9,14.9c-8.4,7.4-16.9,14.8-25.5,22.2c-3,2.7-6,5.4-9,8.1c0,0,9,4,10.2,4.9c1.1,0.9-0.1,19.5-0.1,19.5&#10;&#9;&#9;&#9;&#9;&#9;c5.6,4.1,11.3,8.2,17,12.4c4-0.2,8-0.5,12-0.7c2.4-1.8,4.8-3.7,7.3-5.5c0,0,22-1.8,25.4-1.7c3.4,0.1,23.3,7,23.3,7&#10;&#9;&#9;&#9;&#9;&#9;c-7.2,3.4-14.3,6.9-21.6,10.4c-3.8-1.2-7.7-2.5-11.5-3.7c-9.1,1.1-18.2,2.3-27.4,3.4c0,0,10.2,9.3,11.8,9.7&#10;&#9;&#9;&#9;&#9;&#9;c1.5,0.5,0.3,14.8,0,17.4c-0.3,2.6-7.4,5.5-7.4,5.5c-3.2-4.1-6.4-8.2-9.7-12.3c-4.9,2.1-9.8,4.2-14.7,6.3&#10;&#9;&#9;&#9;&#9;&#9;c1.3,8.3,2.6,16.5,3.9,24.8c-4.5,5.3-8.9,10.6-13.5,15.9c-2.4,0.7-4.9,1.4-7.3,2.1c-0.2-2.8-0.4-5.5-0.6-8.3&#10;&#9;&#9;&#9;&#9;&#9;c-6.2,0-12.4-0.1-18.6-0.1c-2.4,2.3-4.8,4.6-7.3,6.9c-16.8,1.5-33.6,3.1-50.5,4.7c-5.4-4.3-10.8-8.7-16.2-13&#10;&#9;&#9;&#9;&#9;&#9;c0.3-3.6,0.6-7.2,0.9-10.9c3.2-3.5,6.5-7,9.7-10.5c-2.3-4.1-4.5-8.1-6.8-12.2c-5.1,0-10.2,0-15.3,0.1c-1.7,4.2-3.5,8.4-5.2,12.6&#10;&#9;&#9;&#9;&#9;&#9;c2.1,6.9,4.1,13.9,6.2,20.8c1.5,5.1,3,10.1,4.5,15.2c-10.4,1.2-20.8,2.4-31.2,3.7c0.1,0-21.4,28.4-21.5,29.7&#10;&#9;&#9;&#9;&#9;&#9;c0,1.3-33,30.8-33.1,30.8c-20.2,6-40.6,12.1-61,18.3c0,0-3,10.4-3.5,11.8c-0.5,1.3,20.1-0.4,21.7-0.4c1.6,0,20.7,22.2,20.7,22.2&#10;&#9;&#9;&#9;&#9;&#9;c0,0-1.2,20.8-1.4,23.9c-0.1,3-10.1,17.9-10.1,17.9c-23.4,0.3-46.8,0.7-70.2,1.1c-7.2,2.7-14.5,5.5-21.7,8.2&#10;&#9;&#9;&#9;&#9;&#9;c0,0,5.9,3.8,7.9,4.6c2,0.8-1.9,18.2-1.9,18.2c2.1,3.3,4.3,6.5,6.4,9.8c-6.1,5.9-12.2,11.7-18.3,17.6c-0.4,4.5-0.8,8.9-1.2,13.4&#10;&#9;&#9;&#9;&#9;&#9;c0,0,6,3.8,8.9,4.2c2.9,0.4-2.7,20.4-2.7,20.4c0,0,21-2.5,23.5-2.5c2.5,0,9.5,11.1,9.5,11.1c17.2-1.7,34.4-3.3,51.6-4.9&#10;&#9;&#9;&#9;&#9;&#9;c12.3-10,24.6-19.9,36.7-29.9c-1.9-3-3.7-6-5.6-9.1c-0.4-4.9-0.8-9.8-1.2-14.7c11.4-6.9,22.7-13.8,33.9-20.7&#10;&#9;&#9;&#9;&#9;&#9;c0.3-8.5,0.7-17.1,1-25.6c0,0,19.2-0.6,20.4-0.6c1.2,0,2.8,5.6,2.8,5.6c6.3,0.3,12.5,0.5,18.8,0.8c8.4-6.6,16.8-13.1,25.1-19.6&#10;&#9;&#9;&#9;&#9;&#9;c-0.1,0,24.3,30.8,25.2,32.1c0.8,1.3,14,13,15.6,13c1.6,0,23.1,9.6,23.1,9.6c0,0,21.7,21.4,23,21.8c1.3,0.4-6.5,12.6-6.5,12.6&#10;&#9;&#9;&#9;&#9;&#9;c-12.5,0.2-25,0.5-37.4,0.8c1.4,3.9,2.8,7.8,4.2,11.7c0,0,13.8,12.6,16.4,13.9c2.5,1.3,15.7,0.7,19.2,0.5&#10;&#9;&#9;&#9;&#9;&#9;c3.6-0.2,2.4-6.1,2.4-6.1c-3-3.1-5.9-6.1-8.9-9.2c4.2-0.7,8.3-1.4,12.5-2.1c4.2-5.9,8.4-11.8,12.6-17.8&#10;&#9;&#9;&#9;&#9;&#9;c-3.8-6.5-7.7-13.1-11.5-19.6c0,0,15.8,5.3,21.2,7.1c5.4,1.8,2.3-7.4,2.3-7.4c-10.5-8.8-20.9-17.5-31.3-26.2&#10;&#9;&#9;&#9;&#9;&#9;c-7.1-1.8-14.3-3.5-21.4-5.3c0,0-2.1-12.6-3-13.9c-0.9-1.3-20.1-18.7-20.1-18.7c0.7-5.9,1.3-11.9,2-17.8c0,0,9.7-3.9,10.9-3.9&#10;&#9;&#9;&#9;&#9;&#9;c1.2,0,0.9,15.7,0.9,15.7c-0.2,0,59.2,41.9,68,45.1c8.7,3.1,2.3,27.4,2.7,28.7c0.4,1.3,16.2,22.7,18,24.4&#10;&#9;&#9;&#9;&#9;&#9;c1.7,1.7,16.6-0.7,21.6-0.3c5,0.5,10.3,11.8,14.5,12.3c4.2,0.5,9.6,0.5,12.1,0.6c2.5,0-7.2-17.4-7.2-17.4&#10;&#9;&#9;&#9;&#9;&#9;c-3.7-2.6-7.4-5.3-11-7.9c0,0-8.8-16.1-8.8-17.4c0-1.3,14.6,5.4,14.6,5.4c1-4.2,1.9-8.4,2.9-12.5c5.5,1.2,11.1,2.4,16.6,3.7&#10;&#9;&#9;&#9;&#9;&#9;c0,0,45-8.5,50.7-8.4c5.8,0.1-21.8-8.1-21.8-8.1c-2.7-5.5-5.5-11.1-8.2-16.6c2.6-8.9,5.1-17.8,7.6-26.7c1.9,0,3.8,0.1,5.7,0.1&#10;&#9;&#9;&#9;&#9;&#9;c4.9-9.1,9.8-18.3,14.6-27.4c6.5,1,13,2,19.5,3c2.8,5,5.5,9.9,8.3,14.9c0,0,7.5,14.8,9.3,17.5c1.8,2.6,11.2-13.6,11.2-13.6&#10;&#9;&#9;&#9;&#9;&#9;c-2.1-7-4.2-13.9-6.4-20.9c10.7-3.5,21.5-6.9,32.1-10.4c1.5,11.8,3.1,23.6,4.5,35.4c18.2,14.5,36.5,29.1,55,43.6c0,0,0,0,0,0&#10;&#9;&#9;&#9;&#9;&#9;c-3.4,5.1-6.8,10.1-10.2,15.2c-14.9-1.2-29.8-2.5-44.7-3.7c-4.7-4.4-9.4-8.8-14.1-13.2c-12-0.3-24.1-0.5-36.1-0.7&#10;&#9;&#9;&#9;&#9;&#9;c-4,5.7-8.1,11.4-12.2,17.1c-7.9,1.9-15.7,3.8-23.6,5.7c-11.1,1.6-22.1,3.1-33.2,4.7c-2.5,10.5-5,21-7.5,31.6&#10;&#9;&#9;&#9;&#9;&#9;c0,0,8.7,0.1,10.4,0.1c1.7,0,11.9,5.8,14,7.5c2.2,1.8,4.3,14.3,4.3,14.3c5.4-0.2,10.9-0.4,16.3-0.7c0,0,1.2,9.1,1.3,10.4&#10;&#9;&#9;&#9;&#9;&#9;c0.1,1.3,21.8,1.6,21.8,1.6c0.8-3.3,1.6-6.6,2.5-9.9c0,0,9.1-2.9,10.3-2.9c1.3,0,8.9,10.9,10.2,11.8c1.3,0.9,13.5,1.9,13.5,1.9&#10;&#9;&#9;&#9;&#9;&#9;c0,0,12.6-6.7,13.7-8.8c1.1-2.1,11.8,1.9,13.5,2c1.7,0,5.8,50.1,5.7,50.1c-3.1,10-6.3,20-9.5,30c-9,0.7-18,1.5-27.1,2.2&#10;&#9;&#9;&#9;&#9;&#9;c0,0-1-4.3-3.6-6.1c-2.6-1.8-21.2-0.3-21.2-0.3c-1,4-2,8.1-2.9,12.1c-9.1-0.1-18.1-0.2-27.2-0.3c-1.2-3.2-2.5-6.4-3.7-9.6&#10;&#9;&#9;&#9;&#9;&#9;c-9.3-0.4-18.7-0.8-28-1.1c0.2-3.2,0.4-6.4,0.6-9.5c-10.7-0.1-21.5-0.2-32.2-0.3c-2.9-4.9-5.9-9.9-8.8-14.8&#10;&#9;&#9;&#9;&#9;&#9;c-9.8,4.3-19.5,8.5-29.4,12.8c2.4,5.8,4.7,11.6,7.1,17.4c-5.3,3.2-10.7,6.3-16,9.5c-14.5-4.7-29-9.4-43.5-14.1&#10;&#9;&#9;&#9;&#9;&#9;c-2.6-6.7-5.2-13.3-7.8-20c-5.1-0.3-10.2-0.6-15.2-0.9c-1.1-2.6-2.3-5.2-3.4-7.8c-7.9,0.6-15.8,1.1-23.7,1.7&#10;&#9;&#9;&#9;&#9;&#9;c-8.5-4.6-16.9-9.3-25.3-13.9c5.1-7.2,10.1-14.5,15.2-21.7c-1.4-3.8-2.8-7.5-4.2-11.3c-0.3-4.3-0.5-8.7-0.8-13&#10;&#9;&#9;&#9;&#9;&#9;c-4.2-4.1-8.3-8.1-12.5-12.2c-7.2,4.6-14.5,9.3-21.8,13.9c0-0.1-77,1.2-79.5,0.4c-2.4-0.9-45.2,29-45.2,29&#10;&#9;&#9;&#9;&#9;&#9;c-15.7-4.2-31.4-8.3-47-12.5c0,0-19.7,30.1-20.7,31.9c-0.9,1.7-28.6,8.2-28.6,8.2c-2,17.3-4,34.6-6,51.9&#10;&#9;&#9;&#9;&#9;&#9;c-7.3,7.9-14.5,15.7-21.8,23.6c-4.3,0.1-8.5,0.1-12.8,0.2c-10,10.3-19.9,20.7-29.9,31c-1.2,7.6-2.3,15.2-3.4,22.9&#10;&#9;&#9;&#9;&#9;&#9;c-10.3,15.2-20.5,30.4-30.8,45.5c0,0,5.8,22.8,8,24c2,1.3-7.1,70.6-7,70.6c-4.3,4.3-8.5,8.6-12.7,13c0,0,5.6,7.3,5.6,8.2&#10;&#9;&#9;&#9;&#9;&#9;c0,0.9-0.2,30.5-0.2,30.5c5.9,1.3,11.9,2.6,17.8,3.9c0,0,23.5,34.5,26.1,35.8c2.6,1.3-2.6,12.1-2.5,12.1&#10;&#9;&#9;&#9;&#9;&#9;c-0.1-0.1,75.3,67.5,78.4,68.5c3,0.9,38-16.3,38-16.3c13.6,3.9,27.3,7.9,40.9,11.8c14.1-8.5,28.2-17,42.4-25.5&#10;&#9;&#9;&#9;&#9;&#9;c16.8,0,33.6,0,50.4,0.1c0,0,6.1,19.1,6.6,20.4c0.4,1.3,12.6,14.8,13.9,16.1c1.3,1.3,10.4-11.7,10.4-11.7&#10;&#9;&#9;&#9;&#9;&#9;c6.8,0.1,13.6,0.3,20.4,0.4c4.3,4.1,8.7,8.1,13,12.2c0.3,9.6,0.6,19.1,0.9,28.7c0,0-10.3,24.3-7.7,25.6&#10;&#9;&#9;&#9;&#9;&#9;c2.6,1.3-2.5,30.4-2.5,30.4c13.7,16.8,27.3,33.6,40.8,50.4c-0.2,7.8-0.3,15.6-0.5,23.5c0,0,9.3,19.1,11.9,20.4&#10;&#9;&#9;&#9;&#9;&#9;c2.5,1.3-3.5,25.2-3.5,27.4c0,2.2,15.1,27.8,15.1,27.8c-10.1,18.6-20.1,37.1-30,55.7c0,0-3.8,44.3-3,46.1&#10;&#9;&#9;&#9;&#9;&#9;c0.9,1.7,25.5,33,25.4,33c0,5.9-0.1,11.9-0.1,17.8c3.6,5.5,7.2,11,10.8,16.5c0.5,25.1,1,50.1,1.5,75.2&#10;&#9;&#9;&#9;&#9;&#9;c0.1,0,19.8,26.8,22.5,28.1c2.7,1.3-3.2,19.1-3.2,19.1c6.3,5.9,12.5,11.8,18.7,17.7c-0.4,4.9-0.8,9.9-1.2,14.8&#10;&#9;&#9;&#9;&#9;&#9;c-2.8-0.3-5.7-0.5-8.5-0.8c-0.1,4.9-0.3,9.8-0.4,14.8c0.1,0,20,23.7,23,23.6c3,0,15.6-8.9,17.6-11.5c2-2.6,26.4-0.4,26.4-0.4&#10;&#9;&#9;&#9;&#9;&#9;c12.7-2.3,25.5-4.5,38.3-6.9c13.6-12.1,27.3-24.3,41.2-36.5c13.6-19.8,27.3-39.6,41.2-59.4c0.8-9.7,1.6-19.3,2.3-29&#10;&#9;&#9;&#9;&#9;&#9;c6.5-3.3,13.1-6.7,19.6-10c0,0,15.9-7.3,17.1-7.8c1.3-0.5,0.9-19.8,0.9-19.8c0.9-12.9,1.9-25.9,2.7-38.8&#10;&#9;&#9;&#9;&#9;&#9;c-3.8-0.8-7.5-1.5-11.3-2.3c1.5-3.9,3-7.8,4.5-11.7c0,0,13.5,0.1,15.2-0.4c1.6-0.5,38.3-43.5,38.4-43.5&#10;&#9;&#9;&#9;&#9;&#9;c5.3-0.1,10.5-0.3,15.8-0.4c6.8-10,13.5-20.1,20.3-30.1c1.9-17.1,3.8-34.1,5.5-51.2c2.3-3.3,4.7-6.7,7-10&#10;&#9;&#9;&#9;&#9;&#9;c-5.8-5.7-11.6-11.5-17.4-17.2c0.7-3.7,1.3-7.5,2-11.2c-2.7-1.4-5.5-2.8-8.2-4.1c-0.2-4.6-0.3-9.2-0.5-13.7&#10;&#9;&#9;&#9;&#9;&#9;c2.7-2.8,5.4-5.5,8.1-8.3c0.2-3,0.3-6,0.5-9c-3.7-1.9-7.5-3.9-11.2-5.8c1.5-4.6,3-9.2,4.5-13.8c5.1-0.1,10.3-0.2,15.4-0.2&#10;&#9;&#9;&#9;&#9;&#9;c0.6-3.2,1.2-6.3,1.8-9.5c-2.5-1.3-5-2.5-7.5-3.8c10.8-17.8,21.6-35.5,32.4-53.2c18.2-16.7,36.3-33.3,54.5-49.8&#10;&#9;&#9;&#9;&#9;&#9;c0.1,0,39.6-51.6,46.5-51.6c7,0,0.6-29,0.6-29c9.2-10.5,18.4-20.9,27.6-31.3c0.1-12.1,0.1-24.2,0.1-36.3c0,0-40.6,7.4-44,7.4&#10;&#9;&#9;&#9;&#9;&#9;c-3.5,0-9.9,7.4-9.9,7.4c0,0-44.6,6.3-46.4,6.3c-1.7,0-8.7-9.7-8.7-9.7c0,0-12.3-37.7-13.5-41.2c-1.2-3.4-43.7-28.2-43.7-28.2&#10;&#9;&#9;&#9;&#9;&#9;c0,0-7-39-8.8-41.9c-1.8-2.9-18.8-13.3-18.8-13.3c-0.6-10.7-1.3-21.4-1.9-32.2c-2.8-5.8-5.7-11.5-8.5-17.3&#10;&#9;&#9;&#9;&#9;&#9;c-4.5-2.9-9-5.8-13.5-8.7c-0.9-5.9-1.9-11.9-2.9-17.8c-9.4-13.7-18.9-27.4-28.3-41.1c-1.1-4.8-2.3-9.6-3.4-14.4&#10;&#9;&#9;&#9;&#9;&#9;c6.1,1,12.2,2.1,18.4,3.1c0,0,0,0,0,0c0,0,21.4,22.7,23.8,23.3c2.3,0.6,8.2,21.3,8.2,21.3c9.1,7.8,18.1,15.5,27.2,23.2&#10;&#9;&#9;&#9;&#9;&#9;c0,12.6,0.1,25.2,0,37.9c8.4,4.8,16.8,9.7,25.2,14.5c0,0,3.2,14.3,3.9,16.1c0.6,1.7,26.1,31.1,28.4,32.2&#10;&#9;&#9;&#9;&#9;&#9;c2.4,1.2,5.3,47.5,5.2,47.5c3.9,4.6,7.8,9.2,11.7,13.7c14.8-5.3,29.7-10.6,44.5-15.9c20.8-8.3,41.5-16.5,62.2-24.7&#10;&#9;&#9;&#9;&#9;&#9;c0.3-5.7,0.6-11.3,0.8-17c12.8-3.3,25.7-6.6,38.5-9.9c5.8-6,11.6-11.9,17.4-17.9c13.2-18.3,26.3-36.5,39.1-54.6&#10;&#9;&#9;&#9;&#9;&#9;c-5.9-6.6-11.9-13.3-17.8-19.9c-10.7-2.8-21.4-5.6-32.1-8.4c-4.1-10.8-8.2-21.6-12.4-32.4c-7.5,10.2-15.1,20.4-22.7,30.6&#10;&#9;&#9;&#9;&#9;&#9;c-9.8-1.5-19.7-3-29.5-4.4c-6-9-12.1-18-18.1-27c-7.5-5.1-15.1-10.1-22.6-15.2c-7.2-14.7-14.4-29.5-21.6-44.2&#10;&#9;&#9;&#9;&#9;&#9;c0,0,22.4-3.5,24.2-2.9c1.8,0.6,22,37.4,21.9,37.3c18.3,4.5,36.7,9.1,55.1,13.6c7.9-1.2,15.8-2.3,23.7-3.4&#10;&#9;&#9;&#9;&#9;&#9;c4.2,8.4,8.4,16.7,12.6,25c10.8,1.9,21.6,3.8,32.4,5.7c0,0,49,4.4,51.3,4.5c2.3,0,34.4-7,34.3-7c15.3,12.2,30.6,24.4,45.8,36.5&#10;&#9;&#9;&#9;&#9;&#9;c2.6,3.7,5.1,7.5,7.7,11.2c-5.3,1.6-10.5,3.1-15.8,4.7c0,0,25.6,22.6,27.3,23.1c1.8,0.6,13-4.2,13-4.2&#10;&#9;&#9;&#9;&#9;&#9;c-0.2-7.2-0.5-14.3-0.8-21.5c3.4-0.3,6.9-0.6,10.3-0.9c0.5,12.4,0.9,24.8,1.2,37.2c0,0,10.5,12.5,12.2,13.1&#10;&#9;&#9;&#9;&#9;&#9;c1.8,0.6,2.6,31.4,2.5,31.4c9.4,9.1,18.7,18.1,28,27.1c0.5,11,0.8,21.9,1.1,32.9c6,5.9,12.1,11.7,18.1,17.5&#10;&#9;&#9;&#9;&#9;&#9;c0.1,0,4.5,31.1,6.7,33.9c2.3,2.7,15.4,14.1,15.4,14.1c3.4-3.7,6.7-7.3,10.1-10.9c6.7-7.8,13.4-15.6,20-23.4&#10;&#9;&#9;&#9;&#9;&#9;c0.5-22.4,0.7-44.8,0.4-67.3c0,0,7.3-8.1,10.7-8c3.5,0,13.4-14.5,13.3-14.5c16.5-16,32.7-31.9,48.7-47.6&#10;&#9;&#9;&#9;&#9;&#9;c2.8-6.5,5.5-13.1,8.2-19.6c11.6-1.5,23.1-3,34.7-4.5c4.7-2.7,9.5-5.4,14.2-8.1c3.7,8.7,7.4,17.5,11,26.2&#10;&#9;&#9;&#9;&#9;&#9;c0.1,0.1,39.7,29.4,41.5,30.4c1.9,1.1,5,36.9,4.9,36.9c0,0,20.3,1.3,22,1.3c0.8,0,3.4-4.2,5.9-8.6&#10;&#9;&#9;&#9;&#9;&#9;c-19.4-311.5-162.9-589.3-381.7-784.5c-17.7-3.6-35.3-7.2-52.9-10.7C1504.6,670.8,1497.8,673.2,1491,675.7z" style="fill: rgb(70, 196, 140);"/>
			</g>
		</g>
	</g>
</g></svg>