<?xml version="1.0" encoding="utf-8"?>
<svg id="master-artboard" viewBox="0 0 1400 980" version="1.1" xmlns="http://www.w3.org/2000/svg" x="0px" y="0px" style="enable-background:new 0 0 1400 980;" width="1400px" height="980px"><g transform="matrix(0.875, 0, 0, 0.875, 0.000014046901924302801, 96.24999237060547)">
		<path d="M 1303.699951 301 H 1315.899951 V 900 H 1303.699951 V 301 Z" class="st5" style="fill: rgb(66, 105, 160);"/>
		<g>
			<path class="st6" d="M1309.7,488.4c-30.6,0-59.4-6-81.1-16.9c-22.7-11.4-35.2-26.9-35.2-43.7s12.5-32.3,35.2-43.7&#10;&#9;&#9;&#9;&#9;c21.7-10.9,50.5-16.9,81.1-16.9c30.6,0,59.4,6,81.1,16.9c22.7,11.4,35.2,26.9,35.2,43.7s-12.5,32.3-35.2,43.7&#10;&#9;&#9;&#9;&#9;C1369.1,482.4,1340.3,488.4,1309.7,488.4z M1309.7,376c-29.2,0-56.6,5.7-77.1,16c-19.6,9.8-30.3,22.5-30.3,35.8&#10;&#9;&#9;&#9;&#9;c0,13.3,10.8,26,30.3,35.8c20.5,10.3,47.9,16,77.1,16c29.2,0,56.6-5.7,77.1-16c19.6-9.8,30.3-22.5,30.3-35.8&#10;&#9;&#9;&#9;&#9;c0-13.3-10.8-26-30.3-35.8C1366.3,381.6,1339,376,1309.7,376z" style="fill: rgb(244, 123, 42);"/>
		</g>
		<g>
			<g class="st7">
				<path class="st8" d="M1214.8,400.9l-0.1,26.8c-0.2,52.3,189.9,51.7,190.1,0.4l0.1-26.8L1214.8,400.9z" style="fill: rgb(84, 152, 209);"/>
				<g>
					<path class="st9" d="M1376.8,372.9c37.2,15.6,37.4,40.8,0.4,56.3s-97.2,15.6-134.4,0c-37.2-15.6-37.4-40.8-0.4-56.3&#10;&#9;&#9;&#9;&#9;&#9;&#9;S1339.6,357.4,1376.8,372.9z" style="fill: rgb(126, 178, 228);"/>
				</g>
				<g>
					<linearGradient id="SVGID_5_" gradientUnits="userSpaceOnUse" x1="1309.8025" y1="310.4579" x2="1309.8025" y2="426.1006">
						<stop offset="0" style="stop-color:#6B99F4"/>
						<stop offset="1" style="stop-color:#1372F5"/>
					</linearGradient>
					<path class="st10" d="M1371.5,350.5c13.5,22,19.3,36.5,19.3,45.3c-1,42.6-160.5,42.5-162,0c-0.1-8.7,5.7-23.1,19-45&#10;&#9;&#9;&#9;&#9;&#9;&#9;C1279.4,299.7,1339.8,299.7,1371.5,350.5z" style="fill: url('#SVGID_5_');"/>
				</g>
			</g>
		</g>
		<g>
			<path class="st8" d="M1156.8,140.5c19.5,20.2,27.9,33.5,28,41.6c-1.5,39.1-232.5,39-234.8,0c-0.1-8,8.2-21.2,27.5-41.3&#10;&#9;&#9;&#9;&#9;C1023.3,93.8,1110.9,93.9,1156.8,140.5z" style="fill: rgb(84, 152, 209);"/>
		</g>
		<path d="M 1132.699951171875 188.1999969482422 L 1228.800048828125 277.20001220703125 L 1187.9000244140625 308.5 L 1073.800048828125 197 Z" class="st8" style="fill: rgb(84, 152, 209);"/>
		<path class="st9" d="M1104.5,181.2c17.2,0,34.5,12.1,44.2,21.8s64.2,59.3,64.2,59.3l-28.1,27.8&#10;&#9;&#9;&#9;c-41.1-38.4-103.1-101.9-103.1-101.9L1104.5,181.2z" style="fill: rgb(126, 178, 228);"/>
		<g>
			<path class="st9" d="M1149.1,121.1c17.8,20.2,25.5,33.5,25.6,41.6c-1.4,39.1-212.7,39-214.7,0c-0.1-8,7.5-21.2,25.2-41.3&#10;&#9;&#9;&#9;&#9;C1027.1,74.4,1107.2,74.4,1149.1,121.1z" style="fill: rgb(126, 178, 228);"/>
		</g>
		<g>
			<g class="st7">
				<path class="st8" d="M1172.1,295.3l-0.2,38.9c-0.3,75.7,275.2,74.9,275.5,0.6l0.2-38.9L1172.1,295.3z" style="fill: rgb(84, 152, 209);"/>
				<g>
					<path class="st9" d="M1406.9,254.7c54,22.5,54.2,59.1,0.6,81.7c-53.6,22.5-140.8,22.5-194.8,0c-54-22.5-54.3-59.1-0.6-81.7&#10;&#9;&#9;&#9;&#9;&#9;&#9;S1352.9,232.2,1406.9,254.7z" style="fill: rgb(126, 178, 228);"/>
				</g>
				<g>
					<linearGradient id="SVGID_6_" gradientUnits="userSpaceOnUse" x1="1309.8262" y1="164.1785" x2="1309.8262" y2="331.7762">
						<stop offset="0" style="stop-color:#6B99F4"/>
						<stop offset="1" style="stop-color:#1372F5"/>
					</linearGradient>
					<path class="st11" d="M1399.2,222.2c19.5,31.9,27.9,52.9,28,65.7c-1.5,61.8-232.5,61.5-234.8,0c-0.1-12.6,8.2-33.4,27.5-65.3&#10;&#9;&#9;&#9;&#9;&#9;&#9;C1265.7,148.5,1353.3,148.6,1399.2,222.2z" style="fill: url('#SVGID_6_');"/>
				</g>
			</g>
		</g>
		<g>
			<path d="M 1162.999975 317.899994 A 16.9 16.9 0 0 1 1146.099976 334.799994 A 16.9 16.9 0 0 1 1129.199976 317.899994 A 16.9 16.9 0 0 1 1146.099976 300.999994 A 16.9 16.9 0 0 1 1162.999975 317.899994 Z" class="st0" style="fill: rgb(255, 255, 255);"/>
			<path d="M 1201.700048 351.299988 A 16.9 16.9 0 0 1 1184.800049 368.199987 A 16.9 16.9 0 0 1 1167.900049 351.299988 A 16.9 16.9 0 0 1 1184.800049 334.399988 A 16.9 16.9 0 0 1 1201.700048 351.299988 Z" class="st0" style="fill: rgb(255, 255, 255);"/>
			<path d="M 1256.999975 370.200012 A 16.9 16.9 0 0 1 1240.099976 387.100012 A 16.9 16.9 0 0 1 1223.199976 370.200012 A 16.9 16.9 0 0 1 1240.099976 353.300013 A 16.9 16.9 0 0 1 1256.999975 370.200012 Z" class="st0" style="fill: rgb(255, 255, 255);"/>
		</g>
		<g>
			<path d="M 1490.300024 317.899994 A 16.9 16.9 0 0 1 1473.400024 334.799994 A 16.9 16.9 0 0 1 1456.500025 317.899994 A 16.9 16.9 0 0 1 1473.400024 300.999994 A 16.9 16.9 0 0 1 1490.300024 317.899994 Z" class="st0" style="fill: rgb(255, 255, 255);"/>
			<path d="M 1451.599951 351.299988 A 16.9 16.9 0 0 1 1434.699951 368.199987 A 16.9 16.9 0 0 1 1417.799952 351.299988 A 16.9 16.9 0 0 1 1434.699951 334.399988 A 16.9 16.9 0 0 1 1451.599951 351.299988 Z" class="st0" style="fill: rgb(255, 255, 255);"/>
			<path d="M 1396.300024 370.200012 A 16.9 16.9 0 0 1 1379.400024 387.100012 A 16.9 16.9 0 0 1 1362.500025 370.200012 A 16.9 16.9 0 0 1 1379.400024 353.300013 A 16.9 16.9 0 0 1 1396.300024 370.200012 Z" class="st0" style="fill: rgb(255, 255, 255);"/>
		</g>
		<path d="M 1326.599951 378 A 16.9 16.9 0 0 1 1309.699951 394.9 A 16.9 16.9 0 0 1 1292.799952 378 A 16.9 16.9 0 0 1 1309.699951 361.1 A 16.9 16.9 0 0 1 1326.599951 378 Z" class="st0" style="fill: rgb(255, 255, 255);"/>
	</g></svg>