<?xml version="1.0" encoding="utf-8"?>
<svg id="master-artboard" viewBox="0 0 1293 900" version="1.1" xmlns="http://www.w3.org/2000/svg" x="0px" y="0px" style="enable-background:new 0 0 1400 980;" width="1293px" height="900px" xmlns:xlink="http://www.w3.org/1999/xlink"><rect id="ee-background" x="0" y="0" width="1293" height="900" style="fill: white; fill-opacity: 0; pointer-events: none;"/>



<g transform="matrix(0.9183673469387755, 0, 0, 0.9183673469387755, 3.642849691465699, 0.0000037444456211233046)"><g>
	<defs>
		<path d="M 25 15 H 1375 V 965 H 25 V 15 Z" id="SVGID_1_"/>
	</defs>
	<clipPath id="SVGID_2_">
		<use style="overflow:visible;" xlink:href="#SVGID_1_"/>
	</clipPath>
	<linearGradient id="SVGID_3_" gradientUnits="userSpaceOnUse" x1="705.9696" y1="978.5969" x2="705.9696" y2="18.1532">
		<stop offset="0" style="stop-color:#FFFFFF"/>
		<stop offset="0.12" style="stop-color:#FBFDFF"/>
		<stop offset="0.2479" style="stop-color:#EEF7FF"/>
		<stop offset="0.3794" style="stop-color:#D9EDFF"/>
		<stop offset="0.5135" style="stop-color:#BBDEFF"/>
		<stop offset="0.6481" style="stop-color:#95CCFF"/>
		<stop offset="0.7152" style="stop-color:#7FC2FF"/>
	</linearGradient>
	
	<linearGradient id="SVGID_4_" gradientUnits="userSpaceOnUse" x1="723.6986" y1="814.7136" x2="723.6986" y2="285.0593">
		<stop offset="0" style="stop-color:#CCDEFF"/>
		<stop offset="0.213" style="stop-color:#C7DBFF"/>
		<stop offset="0.4519" style="stop-color:#BAD2FF"/>
		<stop offset="0.7031" style="stop-color:#A3C3FF"/>
		<stop offset="0.9614" style="stop-color:#84AFFF"/>
		<stop offset="1" style="stop-color:#7FABFF"/>
	</linearGradient>
	<path class="st2" d="M1380.4,544.3c-20.2-22.1-33.7-51.8-64.9-61.4c-35.4-10.9-71.3-18-105.8-36.4c-19.2-10.2-34.5-23.9-51-38.1&#10;&#9;&#9;c-16.5-14.1-32-17.3-51.3-23.4c-23.7-7.5-45-15.1-64.6-33.4c-10.9-10.1-21.4-29.8-33.5-37.5c-15.4-9.8-27.6-3.1-42.2-18.1&#10;&#9;&#9;c-6.5-6.7-10.3-16.8-19-20.6c-6.8-3-15.1,2.2-21.4-2.1c-3.8-2.6-8.3-17-12.2-21.7c-5.2-6.4-9.1-6.5-15.2-12.4&#10;&#9;&#9;c-19-18.6-23.8-1.8-42.2,10c-20.2,12.9-23.6,31.2-43.6,44.5c-25.5,16.9-53.6,36.1-68.3,58.6c-15.2,23.3-52.1,24.6-74,39.8&#10;&#9;&#9;c-49.1,34.2-76.5,38.5-132.7,56.2c-28.6,9-61.3-0.6-89.7,3.6c-28.2,4.1-56.2-4.5-83.2,6.1c-65,25.7-133,65.2-206.4,58.5L67,572.6&#10;&#9;&#9;l1296.1,68.3" style="opacity: 0.7; clip-path: url('#SVGID_2_'); fill: url('#SVGID_4_');"/>
	
		<linearGradient id="SVGID_5_" gradientUnits="userSpaceOnUse" x1="435.6361" y1="731.9606" x2="435.6361" y2="436.085" gradientTransform="matrix(-0.9969 0 0 1 909.977 0)">
		<stop offset="0" style="stop-color:#CCDEFF"/>
		<stop offset="0.213" style="stop-color:#C7DBFF"/>
		<stop offset="0.4519" style="stop-color:#BAD2FF"/>
		<stop offset="0.7031" style="stop-color:#A3C3FF"/>
		<stop offset="0.9614" style="stop-color:#84AFFF"/>
		<stop offset="1" style="stop-color:#7FABFF"/>
	</linearGradient>
	
	
	
	
	
	
	
	<path d="M 31.1 28.1 H 1371.1 V 945.899988 H 31.1 V 28.1 Z" class="st12" style="clip-path: url('#SVGID_2_'); fill: none;"/>
	
	
	
	
	
	
	
	
	
	
	
	
</g></g></svg>