<?xml version="1.0" encoding="utf-8"?>
<svg id="master-artboard" viewBox="0 0 1293 900" version="1.1" xmlns="http://www.w3.org/2000/svg" x="0px" y="0px" style="enable-background:new 0 0 1400 980;" width="1293px" height="900px" xmlns:xlink="http://www.w3.org/1999/xlink"><rect id="ee-background" x="0" y="0" width="1293" height="900" style="fill: white; fill-opacity: 0; pointer-events: none;"/>



<g transform="matrix(0.9183673469387755, 0, 0, 0.9183673469387755, 3.642849691465699, 0.0000037444456211233046)"><g>
	<defs>
		<path d="M 25 15 H 1375 V 965 H 25 V 15 Z" id="SVGID_1_"/>
	</defs>
	<clipPath id="SVGID_2_">
		<use style="overflow:visible;" xlink:href="#SVGID_1_"/>
	</clipPath>
	<linearGradient id="SVGID_3_" gradientUnits="userSpaceOnUse" x1="705.9696" y1="978.5969" x2="705.9696" y2="18.1532">
		<stop offset="0" style="stop-color:#FFFFFF"/>
		<stop offset="0.12" style="stop-color:#FBFDFF"/>
		<stop offset="0.2479" style="stop-color:#EEF7FF"/>
		<stop offset="0.3794" style="stop-color:#D9EDFF"/>
		<stop offset="0.5135" style="stop-color:#BBDEFF"/>
		<stop offset="0.6481" style="stop-color:#95CCFF"/>
		<stop offset="0.7152" style="stop-color:#7FC2FF"/>
	</linearGradient>
	
	<linearGradient id="SVGID_4_" gradientUnits="userSpaceOnUse" x1="723.6986" y1="814.7136" x2="723.6986" y2="285.0593">
		<stop offset="0" style="stop-color:#CCDEFF"/>
		<stop offset="0.213" style="stop-color:#C7DBFF"/>
		<stop offset="0.4519" style="stop-color:#BAD2FF"/>
		<stop offset="0.7031" style="stop-color:#A3C3FF"/>
		<stop offset="0.9614" style="stop-color:#84AFFF"/>
		<stop offset="1" style="stop-color:#7FABFF"/>
	</linearGradient>
	
	
		<linearGradient id="SVGID_5_" gradientUnits="userSpaceOnUse" x1="435.6361" y1="731.9606" x2="435.6361" y2="436.085" gradientTransform="matrix(-0.9969 0 0 1 909.977 0)">
		<stop offset="0" style="stop-color:#CCDEFF"/>
		<stop offset="0.213" style="stop-color:#C7DBFF"/>
		<stop offset="0.4519" style="stop-color:#BAD2FF"/>
		<stop offset="0.7031" style="stop-color:#A3C3FF"/>
		<stop offset="0.9614" style="stop-color:#84AFFF"/>
		<stop offset="1" style="stop-color:#7FABFF"/>
	</linearGradient>
	<path class="st3" d="M42.4,580.9c13.4-12.4,22.2-28.9,42.8-34.3c23.4-6.1,47-10.1,69.8-20.3c12.7-5.7,22.7-13.4,33.7-21.3&#10;&#9;&#9;c10.9-7.9,21.1-9.7,33.8-13.1c15.7-4.2,29.7-8.5,42.6-18.6c7.2-5.6,14.1-16.7,22.1-21c10.1-5.5,18.2-1.7,27.9-10.1&#10;&#9;&#9;c4.3-3.7,6.8-9.4,12.5-11.5c4.5-1.7,10,1.2,14.1-1.2c2.5-1.5,5.5-9.5,8.1-12.1c3.4-3.6,6-3.6,10-6.9c12.6-10.4,15.7-1,27.8,5.6&#10;&#9;&#9;c13.3,7.2,15.5,17.5,28.8,24.9c16.8,9.4,35.4,20.2,45,32.7c10.1,13,34.4,13.8,48.8,22.2c32.4,19.1,50.5,21.5,87.6,31.4&#10;&#9;&#9;c18.8,5,40.5-0.3,59.2,2c18.6,2.3,37.1-2.5,54.9,3.4C755,547,799.8,569,848.2,565.4l60.8,31.3L53.8,634.8" style="opacity: 0.7; clip-path: url('#SVGID_2_'); fill: url('#SVGID_5_');"/>
	
	
	
	
	
	
	<path d="M 31.1 28.1 H 1371.1 V 945.899988 H 31.1 V 28.1 Z" class="st12" style="clip-path: url('#SVGID_2_'); fill: none;"/>
	
	
	
	
	
	
	
	
	
	
	
	
</g></g></svg>