<?xml version="1.0" encoding="utf-8"?>
<svg id="master-artboard" viewBox="0 0 1261.4661865234375 877.475830078125" version="1.1" xmlns="http://www.w3.org/2000/svg" x="0px" y="0px" style="enable-background:new 0 0 1400 980;" width="1261.4661865234375px" height="877.475830078125px" xmlns:xlink="http://www.w3.org/1999/xlink"><rect id="ee-background" x="0" y="0" width="1261.4661865234375" height="877.475830078125" style="fill: white; fill-opacity: 0; pointer-events: none;"/>



<g transform="matrix(0.9183673858642578, 0, 0, 0.9183673858642578, -27.891013383865356, 0.0000037444460758706555)"><g>
	<defs>
		<path d="M 25 15 H 1375 V 965 H 25 V 15 Z" id="SVGID_1_"/>
	</defs>
	<clipPath id="SVGID_2_">
		<use style="overflow:visible;" xlink:href="#SVGID_1_"/>
	</clipPath>
	<linearGradient id="SVGID_3_" gradientUnits="userSpaceOnUse" x1="705.9696" y1="978.5969" x2="705.9696" y2="18.1532">
		<stop offset="0" style="stop-color:#FFFFFF"/>
		<stop offset="0.12" style="stop-color:#FBFDFF"/>
		<stop offset="0.2479" style="stop-color:#EEF7FF"/>
		<stop offset="0.3794" style="stop-color:#D9EDFF"/>
		<stop offset="0.5135" style="stop-color:#BBDEFF"/>
		<stop offset="0.6481" style="stop-color:#95CCFF"/>
		<stop offset="0.7152" style="stop-color:#7FC2FF"/>
	</linearGradient>
	
	<linearGradient id="SVGID_4_" gradientUnits="userSpaceOnUse" x1="723.6986" y1="814.7136" x2="723.6986" y2="285.0593">
		<stop offset="0" style="stop-color:#CCDEFF"/>
		<stop offset="0.213" style="stop-color:#C7DBFF"/>
		<stop offset="0.4519" style="stop-color:#BAD2FF"/>
		<stop offset="0.7031" style="stop-color:#A3C3FF"/>
		<stop offset="0.9614" style="stop-color:#84AFFF"/>
		<stop offset="1" style="stop-color:#7FABFF"/>
	</linearGradient>
	
	
		<linearGradient id="SVGID_5_" gradientUnits="userSpaceOnUse" x1="435.6361" y1="731.9606" x2="435.6361" y2="436.085" gradientTransform="matrix(-0.9969 0 0 1 909.977 0)">
		<stop offset="0" style="stop-color:#CCDEFF"/>
		<stop offset="0.213" style="stop-color:#C7DBFF"/>
		<stop offset="0.4519" style="stop-color:#BAD2FF"/>
		<stop offset="0.7031" style="stop-color:#A3C3FF"/>
		<stop offset="0.9614" style="stop-color:#84AFFF"/>
		<stop offset="1" style="stop-color:#7FABFF"/>
	</linearGradient>
	
	
	
	<path class="st9" d="M27.7,604c32.4-12.5,32.3,22.7,55.6,36.1c10.7,6.1,24.3,2.9,33.4,10.4c12.5,10.2,8.7,28.4,19,39.4&#10;&#9;&#9;c10.7,11.4,15.3,6.1,30.4,8.5c13.4,2.1,19,6,30.9,9.9c9,3,25,2.3,32.3,6.4c9.3,5.2,12,19.3,20.6,25.7c9.3,6.8,19,7.2,29,12.4&#10;&#9;&#9;c12.8,6.6,15.1,18.7,23.9,24.4c17.3,11.2,41.4,5.2,60.8,14.9c22.5,11.2,141.2-47.2,163.8-39.8c24.9,8.1,43.9,31.5,68.2,41.4&#10;&#9;&#9;c21.7,8.9,56.9,14.7,81.4,10.5c33-5.6,65.9,33.3,100.3,44c53.8,16.8,114.8,73.2,178.9,74c154.7,2,422.7,32.8,422.7,32.8H27.7V604z" style="clip-path: url('#SVGID_2_'); fill: rgb(20, 55, 76);"/>
	<path class="st10" d="M45.9,515c2.5,0.4,2.3-2.9,3.9-3.8c0.4,4.5,5.3,2.4,8.5,2.8v8.4c2.5,2.5,10,5.9,11.8,0.9&#10;&#9;&#9;c-0.4-3-4.6-7.1-1.3-9.4c-1.4,0-2.7-4.8-3.3-2.8c-2.2-0.6-1.1,1.9-0.7,2.8c-2.5-0.2-4.7-0.8-6.6-1.9c0.3-2.1,1.3-4.8,0-6.6&#10;&#9;&#9;c3.1-2.3,8.3,3.2,8.5,4.7c3-0.5,9.7,10.9,11.8,0.9c7.1-0.9,12.9,2.7,19,5.6c-0.4,2-4,0.9-4.6,0c-2.2-0.8-3.7,1.4-0.7,0.9&#10;&#9;&#9;c4.1,2.2,10,1.9,12.4,6.6c3.4,0.4,6.5,1.4,9.2,2.8c0.2,4.4-0.5,7.4-1.3,10.3c-2.8-1.2-2.9-0.3-5.2,0.9c2.7,2.9,5.3,7.5,2.6,13.1&#10;&#9;&#9;c6.4,1.7,11.4,11.9,17.7,17.8c6.3,5.9,9.4,12,14.4,22.5c5.4,11.4,10.1,15.8,9.8,31.9c-0.8,41.2-16.5,72.7-30.1,100.3&#10;&#9;&#9;c7.2,2.2,17.2,0.3,25.5,0.9c7.2-19.9,14.2-62.3,15.7-94.7c0.8-17.6-2.2-35.4,6.5-42.2c-2.4-6.8-2.1-22.8,3.3-28.1&#10;&#9;&#9;c2.7-2.7,7.9-4.6,11.8-8.4c8.5-8.5,8-14.4,17-9.4c1.3-1.3-3.9-1.3-4.6-2.8c4.4-0.9,12.5-9.9,17-3.8c4.1,1.8,2.5-4.6,6.6-2.8&#10;&#9;&#9;c-0.8-1.4-0.8-2.4,0-3.8c6.8,1.9,9.5-2.1,15.7-0.9c-1.3,4.8-6.4,1.6-6.6,3.8c2.7-0.3-0.1,1.3,0.7,3.8c4.1-1.2,3.3,4.6,7.2,3.8&#10;&#9;&#9;c1.4-12.8,7.2-17,17.7-15c-3.5,3.1,3.5,8.8,3.3,12.2c5.4,0.8,10.6,1.5,12.4,9.4c3.2,0.8,4.3-1.3,6.5-1.9c0.9-6-2.8-5.4-3.9-8.4&#10;&#9;&#9;c-0.2-4.4,1.8-5.5,3.3-7.5c6.5,2,10.4,20,17.7,9.4c-0.1-2.3-1.2-2.9,0-4.7c0.4,0.2,0.8,0.3,1.2,0.4c-0.8-7.2-1.9-14.2-3.4-21&#10;&#9;&#9;c-0.4,2.4-1.2,4.3-1,7.5c-2.8,0.6-2.1-3.8-5.2-2.8c0.2-2.6,2.4-2.1,3.3-3.8c-0.7-3.6,0-9.4-3.3-9.4c-3.1-1.2,1.5,4.5-2,3.8&#10;&#9;&#9;c-0.9-2.6,0.9-9.4-3.9-8.4c0.2-3.4-1.2-4.5-1.3-7.5h-3.9c-1.2-6.4-4.4-9.9-7.2-14.1c-4.3,4.3-10.9-0.2-13.1-4.7&#10;&#9;&#9;c-2.7,0.8-4.9,2.4-8.5,1.9c0.2-3.5,2.9-3.4,2-8.4c-2.8-4.4-7.8-5.7-10.5-10.3c-6.1,3.6-13.6,1.3-16.4-6.6c-1.5-0.3-2.5,0.2-3.3,0.9&#10;&#9;&#9;c-4.9-17.3-25.8-11.8-32.1-27.2c-4.4,0.8-10.2,2.6-11.8-2.8c-5,3.5-10.4-1-15.7,0c-1.3-1.5-2.6-3.1-2.6-6.6&#10;&#9;&#9;c-7.9-4.9-12.9,0.2-21-3.7c-0.4,2-1.4,3-2,4.7c-8.9-8.6-16.5,5-26.2-1.9c-4.4,6.3-9.6,3.9-15.1,1.9c-3,0.6-3.8,4.6-4.6,8.4&#10;&#9;&#9;c-2-1.8-4.7-2.4-6.6,0c-0.1,2.3,1,2.9,1.3,4.7h-2.6c2.7,2.9-0.4,4.6-0.7,8.4c-4.5-1.5-9.1,0.1-13.7,0.9c-0.7,2.9,0.4,5.6-3.9,4.7&#10;&#9;&#9;c-0.5,4.7,2.2,5.6,0.7,9.4c-3.6,0.2-5.2-2.5-7.2-4.7c-2.7,4.2-3.6,11.1-9.8,10.3c-0.3,2.9,1.8,2.5,2,4.7c-9.1,5.2-1.1,21.2-6.6,30&#10;&#9;&#9;C40.4,499.8,38.3,513,45.9,515z M250.2,509.4c4.2-1,5.2,2.6,7.2,4.7C253.7,514.4,251.4,512.7,250.2,509.4z M243.7,515&#10;&#9;&#9;c4.3,1.6,9.7,1.8,11.1,7.5c-2.4,2.2-5.5-1.2-9.2,0C244.8,520.3,243.2,519.1,243.7,515z M227.3,509.4c2.1-1,3.9-2.6,6.6-2.8&#10;&#9;&#9;C233.8,510,229.2,511.8,227.3,509.4z M218.8,515c3.7,1.2,7.8-1.9,9.8,0C227.2,517.7,220.1,518,218.8,515z M218.1,510.3&#10;&#9;&#9;c3,0.5,4.1-1.7,7.2-0.9C225.5,512.8,219,511.5,218.1,510.3z M152,504.7c-0.5,2.4-0.9,5-3.3,4.7C148.7,506.2,150.6,505.9,152,504.7z&#10;&#9;&#9; M155.3,494.4c0.1,3-3.6,5.3-4.6,3.8C152.5,497.3,151.9,493.1,155.3,494.4z M155.9,478.5c-0.7-1.2-0.6-3.5-1.3-4.7h2&#10;&#9;&#9;C156.8,476,158,477.8,155.9,478.5z M161.8,488.8c0.1,2.9-2.3,4.2-3.3,2.8C158.2,488.7,159.9,488.6,161.8,488.8z M163.8,481.3&#10;&#9;&#9;c-2.6-0.3-2,4-4.6,3.8c-0.3-3.6-0.7-3.3,0.7-5.6C161.5,479.5,163,479.9,163.8,481.3z M177.5,487.8c0.9-1.4,3.3-0.8,5.2-0.9&#10;&#9;&#9;C183.4,490.1,177.8,489.1,177.5,487.8z M174.3,515c0-1.9-1.8-1.2-1.3-3.8c1.4-1.1,4.2-0.2,4.6-2.8c-9.8,7-4.3-12.1-7.9-15&#10;&#9;&#9;c4.9-0.5,8.5-2.8,14.4-1.9C186.7,500.7,182.3,511.5,174.3,515z M201.1,504.7c-4.4,3.7-8.6,3.6-15.1,2.8&#10;&#9;&#9;C187.1,494,198,493.3,201.1,504.7z M205.7,501.9c-3.7-2.3-7.4-4.4-10.5-7.5c3.1,0.2,4.8,2.5,8.5,1.9&#10;&#9;&#9;C203.1,499.9,205.3,499.6,205.7,501.9z M201.1,521.6c-7.2-2.6-14.7,1-19.6-4.7c3-0.4,7.2,0.9,9.2-0.9c-0.3-1.5-2.1-0.8-1.3-3.8&#10;&#9;&#9;c10-4.5,19.6-8.7,28.1,0C211.2,514.2,203,513.4,201.1,521.6z M192.6,533.8c-4.6,0.5-9.6-7.3-15.7-2.8c0.5-2.8,0.7-5.8,2-7.5&#10;&#9;&#9;c7.5,4.9,19.7-6.9,22.9,3.8C197.5,528.1,196.4,533.4,192.6,533.8z M191.9,536.6c-5.7,6.8-12,12.8-19.7,16.9&#10;&#9;&#9;C166.8,536.4,183.6,523.9,191.9,536.6z M139.6,534.7c6.4-5.8,15.8-7.4,22.3-13.1c-6.9,2-12,6.5-19,8.4c8.7-11,11.8-34.9,26.2-34.7&#10;&#9;&#9;c-1.6,6.8,1.2,16-1.3,20.6c2.8-2.3,3.9,1.4,4.6,4.7c-3.6,4.8-5.1,12.7-7.2,19.7c-0.4-2.5-1-4.8-2-6.6c-0.8,6.7,1.7,8.9,2.6,13.1&#10;&#9;&#9;c0.7,19.1-8.1,24.7-7.9,43.1C142.9,584.4,137.1,559.5,139.6,534.7z M117.9,518.8c-0.5-0.6-1.7-5.6,0.7-4.7&#10;&#9;&#9;C118.8,516.3,120,518.1,117.9,518.8z M132.3,548.8c-5.5-6.2-12.4-17.2-10.5-28.1c3.1,0.5,7.9-0.9,11.1-2.8&#10;&#9;&#9;C133.7,528.1,132.4,534.7,132.3,548.8z M115.3,546.9c0.7-5.8,1.2-12,3.9-15c0.4,10.5,10.4,15,10.5,29.1&#10;&#9;&#9;C122.6,559.6,119.3,552.8,115.3,546.9z M114,518.8c-7-6.8-21.9-5.3-25.5-17.8c4.7,0.8,9.7,1.2,13.1,3.8c2,1.7-1.8,2.9,0,3.8&#10;&#9;&#9;c1.2,1.9,3.1,0.5,4.6,0c2,1.9,2.3,6.1,6.5,4.7C110.5,516.9,112.5,516,114,518.8z M96.3,512.2c2.2,0.6,3.2,2.9,5.2,3.8&#10;&#9;&#9;c0.2-4.7,7,0.6,3.3,1.9c2.3,1.4,5.3,1.8,6.6,4.7C104.7,521.5,99.3,518.6,96.3,512.2z M87.8,509.4c1.2,1.4,4.3,0,5.2,1.9&#10;&#9;&#9;C91.9,512.7,88,512.3,87.8,509.4z" style="clip-path: url('#SVGID_2_'); fill-rule: evenodd; clip-rule: evenodd; fill: rgb(20, 55, 76);"/>
	
	<path class="st9" d="M476.9,844.5c-2.1-0.1-3.7-0.4-4.7-1c-2.1,3.2,0.5,3.9,0.5,7.5c6-0.4,5.8,2.5,6.8,4.8c-1.6,1-5.7,0.2-7.3,1.1&#10;&#9;&#9;c-1.8-2.8-4.5-5.1-7.8-7.1c0.2-1.2,3.1-0.4,2.6-2.1c-1-1.6-3.3-2.4-7-2.6c-0.8,1.3-0.9,3.1-2.7,3.6c-2.1,0-3-0.7-3.4-1.7&#10;&#9;&#9;c7.2-3.1-6.3-7.4-0.3-9.7c-9.7-0.2-2.2,6-6.7,7.1c-3.4-0.8-1.2-1.2-0.9-3c-4.7-0.7-8.4,3.5-5.3,5.7c0.2-1.2,0.1-2.6,2.6-2.1&#10;&#9;&#9;c-0.1,1.5-0.3,3-0.4,4.5c-3.6-2.6-2.6-0.5-4.9,1.3c-2.6-3.3-11,0.4-10.4-5c3.9-0.5,3.6,1.4,5.8,1.8c1.5-2.9-3.4-2.4-1.9-5.3&#10;&#9;&#9;c-3.4,1.6-7.5-1.8-10.8,0.2c1.7,0.7,3.7,1.3,3.3,3.1c-8.9-0.7-7.2,5.6-11.4,6.2c-1.7-1.2,0-4.2-4.5-3.9c-3.7-0.1,3.4,3.1-0.3,3&#10;&#9;&#9;c-9.4-3.9-15-8.4-16.7-15c-0.5,4.4-3.4,4.4-5.6,8.7c1.4,1.2,4.7,1.2,4.5,3.2c-7.6,5.6-1.4,12.1-2.8,17.8c-2.7-1.9-8.5-5.7-12.8-4.3&#10;&#9;&#9;c6.5,2.8-4.5,2.8-6.3,2.7c3.7,1.4,4.9,1.5,9.5,1.2c0.6,2.8,4.6,7.4,2.8,9.1c-2.2-0.2-3.9-0.7-4.6-1.7c0.4-2.3,0.4-4.5-1.9-5.3&#10;&#9;&#9;c-3.2,2.6-2.3-2.9-7-1.8c-5,3.4-4.5,1.3-11.2,4c0.8-1.9,1.8-2.5-0.9-3.8c-0.4,1.3-2.2,1.6-4.9,1.3c-0.6,6.5,10,9,14.7,10.4&#10;&#9;&#9;c-5.9,2.9,2.6,4.8-0.7,7.4c-2.5-3.1-9.8-3.3-13.3-4.2c0.7,0.5-3.1,1.3-3.3,1.9c-4.1-2-7.7-1.8-10.8,0.2c0,3.2,7.8,7.3,8,4.1&#10;&#9;&#9;c1.2,3.3,4.6,5.5,7.7,7.8c-5-0.6-8.3-2.1-11.7-3.6c-3.2,3,2.6,2.9-0.5,6c3.6,0.2,7.2,0.3,10.8,0.5c0.2,1.3-4.2,3.8,0.9,3.8&#10;&#9;&#9;c2.8-0.4,0.7-4.2,5.1-3.5c0.2,0.6,0.9,0.9,2.3,0.9c-0.4,1.1-2.1,1.2-2.6,2.1c9,3.3,9.9,4.1,14.8,8.9c-4.1,0.1-6.7-0.6-9.5-1.2&#10;&#9;&#9;c-1.3,0.9-1.4,2.7-2.7,3.6c2.1,0.5,7.1-0.5,7.1,1.1c2.2,13.3-12.5,8.6-22.1,4.9c-0.7,4-7.5,3.6-14.7,3c-2.6,3.4-5.6,6.6-10.4,8.5&#10;&#9;&#9;c-0.6-1.1,1.8-3.8-0.9-3.8c-1,2.9-3.2,4.8-5.4,6.8h54.8c-2.2-2.5-1.3-6.6-3.5-9.1c4.3-0.2,6.1,0.9,7,2.6c-0.6,1.4-0.7,3.2-3.9,2.8&#10;&#9;&#9;c1,1.3,3.5,1.9,3.6,3.7h505.6c-0.8-0.5-0.4-1.4,0.5-2.5c-7,0-3.7-5.1-10.5-3.5c-0.3-7.6-9.6-11.3-1-15c-1.3-2.3-3.9-4-5.4-6.2&#10;&#9;&#9;c8.1-2.3-1.9-4.8,6.5-4.9c-1.7-0.7-3.7-1.3-3.3-3.1c1.5,1.1,4.4,1.2,4.9-0.5c-6.7-0.4-8.5-7.2-12.6-6.6c8.1,3.5,4.9,13.3,2,17.3&#10;&#9;&#9;c-5.5,0.4-2.5-3.8-6.8-4.1c-3.5-0.1-2.4,3.1-6.3,2.7c-3-2.4-11-2-11.5-5.8c5.7,1.3,3.7-3.2,1.5-3.7c-4.8,3.2-3.7,8.1-9.3,9.3&#10;&#9;&#9;c1-3.4-6.6-2.1-8-4.1c5-1.2-1.8-2.2-4.5-3.2c-1.2,1-1.2,2.8-5,2c1.2-2.1-1.5-2-0.8-3.8c3-2.8,10.3-4,7.8-6.4c1.6,1.7,3-0.8,3.5,0.9&#10;&#9;&#9;c-0.7,1.7-5.5,1.7-2.7,3.6c2.2-0.3,7,1.2,7.2-0.4c-4.6-2.3,4.9-1.2,3.9-3.6c-10.1-0.4-12.4-5-19.8-6.9c-0.3,3-5.9,1.7-7.2-0.3&#10;&#9;&#9;c7.5-2.2,10.7-1.5,19.3-0.6c4.7-6.6,9.3-8.7,10-17.5c-2-3.8-8.7-5.2-7.4-10.8c-11.8-2.7-13.9-12.3-28.3-6.6&#10;&#9;&#9;c5.1-1.8,1.6-10.5-2.6-10.6c0.3-1.4,4-0.3,3.8-2.1c-2.4-0.8-5.6-1.2-5.7-3.3c3.7,0.5,5.4-0.4,5.1-2.8c-2.2-0.3-2.7,0.7-4.9,0.5&#10;&#9;&#9;c-5-7.6-21-11.5-35-12.1c-0.1,1.6-3.7,4.7-1.7,5.2c0.4-1.3,2.2-1.6,4.9-1.3c0,0.9,1.4,1.1,1,2.3c-4.9,0.2-6.4,2.9-7.7,5.6&#10;&#9;&#9;c-3.7-5-0.2-9.7,2.5-14.1c2.5,0.5,3.7,2.3,5.9,1c-0.7-4.7-12.7-0.7-16.6-2.3c5.3,0.1,7.3-2.2,13.4-1.6c0.1-4.7,9.3-2.9,15.9-3&#10;&#9;&#9;c7.4-6.4,23.2-2.7,32.4,0.8c-0.8-2.1,1.9-1.8,1.5-3.7c-17.9-4.9-30.7,0-49.5,2.1c1.4-2.6-5.3-0.9-4.5-3.2c1.3-4-3.3-18.4,9.7-14.5&#10;&#9;&#9;c0.3-1.1,2.3-2.3,5.1-3.5c6.6,0.7,15,4.1,13.8,6.7c-1.2,0-2.1-3.3-3.5-0.9c3.3-0.2,0.9,2.8,3.3,3.2c4.5-1.2,1.5-2.8,4.1-5&#10;&#9;&#9;c4.4,1.6,3.5,4.3,3.1,5.4c1.1-1.8,3.6,0,1.1,0.8c4.6-2.5,10.8,0.9,5.7,3.3c3.7-0.9,6.1,0.2,5.7,3.3c6.7,0.7,6.1-0.9,12.2-1.7&#10;&#9;&#9;c1,1.4-3.8,2.3-0.3,3c1.1-2.7,6.6,0.6,8.2,1.9c-2.9,0.1-13.6-1.3-10.8,0.2c3.8,0.1,7.2,0.3,8.2,1.9c1,2.8-2.7,2.3-3.9,3.6&#10;&#9;&#9;c8.8,1.5,30.5,13.3,23.8,16.1c2,2.4,6.8-1.2,8.3,1.1c-6.7-0.2-3.7,4.3-4.1,5c-1.7-0.5-2.9-1.3-4.6-1.7c3.3,2.9,3.2,4.5,1.6,9&#10;&#9;&#9;c12.8-0.8,13.1,6.2,27.1,6.5c2.7-1,1-5.1,6.4-4.2c-3,0.4-2.2,2.9-0.4,4.5c0.3-1.4,1-2.4,2.7-2.9c1.1,1.7,5.7,1.6,6.9,3.3&#10;&#9;&#9;c-2.7,1.5-7.8,1.4-8.8,4.1c6.8-3,4.4,1.9,11.8,2.1c1.9-1.3,4.5-2.1,8.6-1.8c0.6-2.7-4.5-2.2-4.4-4.7c4.5,0.2,4-0.9,5.9,1&#10;&#9;&#9;c2.2-1.8,6.6-2.2,8.8-4.1c-1.8-0.2-0.9-1.9-0.9-3c-2.8-0.6-5.4-1.3-9.5-1.2c1.8-1.8-4.5-2.5-0.9-3c4.5,1.1,6.1-0.2,8.2,2.6&#10;&#9;&#9;c2.5-1.6,7.6-1.5,9.6,0.4c1.9-3.1-5.6-1.2-4.4-3.9c1.7-1,6.9-0.7,8.4,0.4c-0.6-4.4,5.2-5.8,2.1-9.6c-9.1,1.4-17.5-0.5-26.1-3.5&#10;&#9;&#9;c4.5-4.3,4.4-15.4-3-20.3c-10.1-0.5-24.1-5.7-36.6-7.7c-12.2,1.4-25.3-2.1-30.6-6.7c-0.5,2-3.7,2.1-6.2,2.7&#10;&#9;&#9;c0.5-1.9-4.6-0.8-3.3-3.2c-0.2-3.7,3.6-0.3,5-2c-6.1-2.6-14.5-3.9-18.5-7.6c8.4,1.2,10.2-2.3,12.5-5.4c6.3,2.1,6.5-0.7,11-1.7&#10;&#9;&#9;c11.8-0.1,14.8,6.8,22.2,7c-2.1,0.6-2.8,2.2-3.9,3.6c5.5-0.4,4.6,2.7,5.6,4.8c11,0.1,5.5,5.1,10.1,8c4.6,0.6,5.1-1.7,8.6-1.8&#10;&#9;&#9;c-0.6-3.7,1.1-4.3,1.9-7.4c2.4,0.1,1.3,2.1,4.6,1.7c0.7-1.7,5.4-4.6,1.8-6.6c-0.1,0.8-2.2,0.8-2.4-0.1c2.6-0.8,6.8-0.5,8.6-1.8&#10;&#9;&#9;c-1-8.2,6.7-10.5,6.3-16.2c1.7,0,2.6,0.5,3.5,0.9c-3.1-3.5,1.5-4.2,3-6.6c-1-0.9-4.4-0.4-3.4-2.4c-3.3-0.5-8.3,2.2-7.1-1.8&#10;&#9;&#9;c-2.8,0.1-5,0.7-7.3,1.1c2-1,1.2-3-0.9-3.8c0,1.3-1.1,1.9-2.6,2.1c-3.2-2.1-7.4-4.4-7.1-1.1c-3.4-0.8-1.3-1.2-0.9-3&#10;&#9;&#9;c-4.5,0.3-8.3,0.3-11.9-1.3c1.8-4.7-3.6-5.6-2.7-9.9c-6.8,1.3-6.9-4.7-8.1-4.1c-1.7,3.1-1.1,3.8-4.1,5c-3.3-4.5-8.7-0.7-13.2,0.1&#10;&#9;&#9;c-1.4-0.4-2.6-0.9-3.4-1.7c4.1-5.7-9.5-7.1-2.7-9.9c-3.1-1-7.2,1.1-7.2-0.3c1.9-5.1-2.5-6.3,3.3-9.6c-2.2,0-2.7-0.9-2.2-2.3&#10;&#9;&#9;c-5.1-1.2-6.7,0.3-8.4-0.4c-0.1-1.1,0.7-2.7-0.9-3c-7.4,0.8-9.3-1-18.1,0.6c5.2-2.1-9.9-5.8-3.4-2.4c-1.6-0.1-2.6,0.2-3.7,0.6&#10;&#9;&#9;c0.2-1-0.4-1.7-1-2.3c0.7-2.4,6.5-1.2,6.4-4.2c-0.9-1.2-1.6-2.5-4.6-2.5c-1.6-0.1-1.2,1.3-2.5,1.4c-1.7-3.1-8.2-3.6-14-4.4&#10;&#9;&#9;c-2.3,4-6.7,3.4-12.2,1.7c-1.5,1-1.8,3-3.9,3.6c-5.3-1.5-8.5,0.8-13.2-0.6c0-1,0.7-1.6,1.4-2.2c-10.7-1.2-26-1.1-30.5,4.5&#10;&#9;&#9;c-20.5-1.6-23.1,12-21.1,19.9c-2-1-1.2-3.6-4.4-4c-4.1,2.7,2.2,9.9-5.9,12.4c0.3-2-1.9-1.6,0.3-3c-2.8-0.1-5.6-0.3-8.4-0.4&#10;&#9;&#9;c-1.1,1.6-1,4-4,4.3c-5.5-2.8-14.3-6.2-21.4-2.5c-0.9,3.8,5.9,3.4,5.4,7c-3.7,0.4-2.1-2.2-5.9-1.8c2.7,2.8,1.8,7.5,6.4,9.3&#10;&#9;&#9;c-2.6,1.8-4.5,4.2-6.6,6.4c2.3,2.5,3.3,5.7,9,6.4c-2.5,2.3,1.7,13.4,14.6,11.2c-3.7,1.5,4.9,4.4,1.9,5.3c-5.6,0.2-7.1-1.4-10.8-0.5&#10;&#9;&#9;c-0.6-1.6,3.6-2.2-1-2.3c-2-0.1-0.9,2-2.6,2.1c-6.8-2.1-18.7-5.4-24.9-3.4c-6.4-3.9-16.3-6.5-27.3-4.3c-0.3,0.6-0.2,1.5-1.3,1.4&#10;&#9;&#9;c1.8,4.3,3.1,4.9,1.4,10.5c2.2,1.9,7.3,2.2,6.7,5.6c-3.9,0-4.9-1.5-9.5-1.2c-0.4-4.2-7-6.2-11.6-4.3c-0.1-2.3-2.3-3.5-3.1-5.4&#10;&#9;&#9;c-2.8-0.1-3.7,1.1-7.3,0.4c-2,2.7,3.2,1.6,2.1,3.8c-2.9,0.9-10.6,2.5-13.3,0.9c2.1-0.6,4-2.3,0.3-3c-0.8,5-2.4-0.6-6-0.3&#10;&#9;&#9;c-3,3.1-6.5,7.8-8.2,10.8c-1.8-0.2-0.9-1.8-0.9-3c-6.5,0.7-9.9,2-16.8-0.1c-2.4,2-5.9,3.2-7.7,5.6c5.4,5.6,2.4,10.3,9.3,16.9&#10;&#9;&#9;c3.6,0.4,7.5-1.7,8.3,1.1c-9.5-0.6-1.5,1.8-5.2,4.2c-3.7-1.5-7-2.3-10.8-0.5c-1,7.6,7.4,10.1,10.6,15.5c-0.3,0.9-2,0.7-3.7,0.6&#10;&#9;&#9;c-1,3.4,5.2,2.9,4.2,6.2c-1.5-0.1-1.6-1-3.5-0.9c0.2,1.8,1.6,2.9,0.7,5.3c-3.1,0.2-5,1.2-6.3,2.7c-2.7-0.5,1.6-1.1-1-2.3&#10;&#9;&#9;c-4.5,0.5-3.3,1.4-8.4,0.3c-2.2,2.9,5.1,0.5,4.6,2.5c0.1,1.6-1.2,2.3-3.8,2.1c-1.3-1.2-3.3-2-3.3-3.9c-4.9-1.2-14.9,1-14.3-1.4&#10;&#9;&#9;c-4.7-0.2-4.1,3.5-8.7,3.3c-2.5-2.2,2.2-4.3,3-6.6c-3.4,2.5-9.8,1.5-15.6,0C472.8,839.7,476,841.4,476.9,844.5z M357.6,926.3&#10;&#9;&#9;c-0.2-2,1.9-2.4,5-2C362.8,926.3,360.7,926.7,357.6,926.3z M365.9,875.1c-0.4-2.9,3.3-2.9,4.1-5c3.4,0,3.3,2,3.3,3.9&#10;&#9;&#9;C369.8,873.7,370.6,876.4,365.9,875.1z M377.4,919.8c-2.1-0.8-2.8-2.2-7-1.8c1-1.4,3.4-1.8,6.2-1.9&#10;&#9;&#9;C375.4,918.1,378.1,918,377.4,919.8z M403.7,856c4.4-0.5,1.4,3,2,4.6C400.1,860.3,403.6,858.3,403.7,856z M390.5,856.1&#10;&#9;&#9;c2.9-0.6,3.8-2.6,8.6-1.8C399.6,857.3,394.3,856.2,390.5,856.1z M398,865.4c-2.5-0.5,2-2.7,1.6-4.4c4.7-0.2,1,4.1,6.9,3.3&#10;&#9;&#9;C404.7,868.3,399.9,861.5,398,865.4z M411.7,860.1c-3.8-0.9-0.1-6-0.5-7.5C416.4,854,410.8,857,411.7,860.1z M422.1,851.6&#10;&#9;&#9;c2,0.1,4,0.2,6,0.3c2.3,2.3,3.7,5,4,8.4c-4.3-0.3-6.8-1.5-10.6-2C426,855,420.6,854.2,422.1,851.6z M436.1,869.5&#10;&#9;&#9;c-1.7-0.5-2.9-1.2-4.7-1.7c0.1-1.2,0.2-2.5,0.3-3.7c1.6,0.1,3.2,0.2,4.8,0.2C433.2,866.9,438.7,867.8,436.1,869.5z M445.2,849&#10;&#9;&#9;c3.2-0.1,3.8,1.2,3.3,3.1c-1.2-0.1-2.4-0.1-3.6-0.2C445,851,445.1,850,445.2,849z M445,890.9c-3.4-0.3-5.6-1.2-4.4-3.9&#10;&#9;&#9;c3.9,0.2,6.1-1,10.8-0.2C451.8,889.9,443.8,887.1,445,890.9z M451.9,854.6c0.4-0.8,2.4-0.4,2.5-1.4c-0.6-0.6-1.1-1.3-1-2.3&#10;&#9;&#9;c2-0.1,2,0.8,3.5,0.9C456.4,853.5,455.9,855.3,451.9,854.6z M457.8,855.6c-0.1-2.2,2.9-2.2,2.8-4.4c1.8,0.1,3.8,2.2-0.1,1.5&#10;&#9;&#9;c0,2.8,8.4,1.1,6.8,4.8C463.7,857.1,463.2,855,457.8,855.6z M462.3,858.8c0.5-1.7,5.3-0.2,6,0.3&#10;&#9;&#9;C467.1,861.6,464.1,859.7,462.3,858.8z M861.4,912.2c0.2,2-2.7,1.8-5,2c0.3-0.9-0.1-1.3-1.1-1.5&#10;&#9;&#9;C856.4,910.4,858.6,911.9,861.4,912.2z M850.2,916.2c2.6,0.2,0.8-2.6,1.5-3.7c5,0.4,5.2,4.1,1.9,5.3c4.3,1.5,1.9-0.3,6-0.5&#10;&#9;&#9;c0.6,1.4,0.3,3.1,2.1,3.8c-1.4,1.4-4.2,1.8-6.2,2.7c3.2,1.2,7,0,9.4,2.7c-0.9,0.7-2.8,0.6-2.6,2.1c-2.9-1.9-10.7-3-10.9,1&#10;&#9;&#9;c-3.8,0.2-4.1-1.5-8.3-1.1c1.9-4.2,3-9,10.5-9.2c-1.2-1.6-6.5,0.6-10.8-0.5c-0.4-3.1-1-2.8-5.8-2.5&#10;&#9;&#9;C838.5,912.7,846.1,916.6,850.2,916.2z M843.3,926.3c-3.1-0.9-6.7-1.5-6.8-4.1C841,922.4,842.7,924,843.3,926.3z M854.4,843.9&#10;&#9;&#9;c-6.7,0.1-9.5-1.9-11.6-4.3c-0.6-2.3,2.3-2.1,1.6-4.4c1.7,0.5,6.3-0.6,5.9,1c1,2.3-2.8,1.2-4.9,1.3c1,1.4,2,2.7,5.8,2.5&#10;&#9;&#9;c3.6-0.3-1-1.6,0.3-3c2,0.1,4,0.2,6,0.3C854.6,838.8,852.1,840.9,854.4,843.9z M864.5,839.1c4.1,0.4,6.1,1.9,5.6,4.8&#10;&#9;&#9;C864.2,844,862.6,841.3,864.5,839.1z M853.3,829.6c3.2,0.2,2.9,2.2,4.5,3.2C855,835.2,850.3,830.5,853.3,829.6z M853.2,817.6&#10;&#9;&#9;c2.6,0,3.8,0.8,3.4,2.4c-3.1-0.5-3.3,3-0.3,3.7c-4.5,2.8-4-3-6.9-3.3C850,819,854,820.1,853.2,817.6z M849.4,833.2&#10;&#9;&#9;c-1.5,0.8-4.3,0.6-7.3,0.4c-1.6-3.2,6.6,0.5,5.1-2.8C848.6,831.2,849.6,831.9,849.4,833.2z M842.9,824.6c2.1,0.2,2.6-0.8,4.9-0.5&#10;&#9;&#9;c-0.3,0.9,0.1,1.3,1.1,1.5C849,826.9,840.9,826.8,842.9,824.6z M842.6,815.6c3.4-0.5,3,1.2,5.9,1c-0.5,3.4-1.3,2.9-0.6,6&#10;&#9;&#9;c-5.6,0.2-1.4-4.9-6.8-4.8C841.8,817.2,842.5,816.7,842.6,815.6z M833.7,820.4c2,1.8,10.2,3,6.7,5.6&#10;&#9;&#9;C838.9,823.8,832.2,824.3,833.7,820.4z M820.2,810.1c-0.2-0.6,0.5-0.7,1.3-0.7c1.2,0.1,2.4,0.1,3.6,0.2c-0.5,1-2.2,1.1-2.6,2.1&#10;&#9;&#9;c6.9-1.2,7.8,3.4,9,7.2c-5.2-1.4-8.4-3.9-14-5.1C818.9,813.2,822.6,810.5,820.2,810.1z M818.2,766.6c-1.8,3.3,0.8,3.1,1.9,6.1&#10;&#9;&#9;c-1.6-0.1-3.2-0.2-4.8-0.2c0.7-0.6,1.4-1.1,1.4-2.2c-5.4,1.2-12.4,1.2-20.5,0.5C803.3,768.4,808.7,768.2,818.2,766.6z M795.5,778.2&#10;&#9;&#9;c-4.6,0.9-2.1-2.2-5.8-1.8C790.6,773.9,795.3,776.3,795.5,778.2z M710.6,865.4c-3.4-4.1-6.1-0.9-12-0.6c-2.2-2.9,1.9-1.9,1.7-5.2&#10;&#9;&#9;c4.3,0.3,6.8,1.5,10.6,2C710.8,862.9,710.7,864.2,710.6,865.4z M715.9,793.9c3-1.8,10.1-0.7,12.3-3.1&#10;&#9;&#9;C726.1,794.9,722.5,793.8,715.9,793.9z M725.1,812.3c-2.2-1.5,2.6,0.5,4.9-0.5c0.1,2.2-7,2.1-1.5,3.7c-0.5,1.5-4.5,0.5-5,2&#10;&#9;&#9;C719.3,816,729.4,813.9,725.1,812.3z M729.4,923.1c-2.9,0.2-2.5-1.5-5.9-1c0.3-3,1.1-5.5,6.5-4.9c-0.6,3,0.3,1.7,3.5,1.7&#10;&#9;&#9;C731.6,920,729,920.5,729.4,923.1z M758,859.5c-2.8-1.3-3.9-3.5-9.3-3.4c0.3-3.2-1.3-5.4-5.4-6.2c-2.1,0.6-1.2,3.4-3.9,3.6&#10;&#9;&#9;c-3.9-2.6-3.3-4.2-11.6-5c2.6-4.4,3.5-5.6,10.2-6.2c-0.3,1.8-0.5,3.6,2.1,3.8c1.5-0.1,1.3-1.4,0.1-1.5c6.8-2.6,6.6,3.5,10.2,6.5&#10;&#9;&#9;C754.1,854,760.4,853.4,758,859.5z M785.5,887.7c-0.6-2.5,2.3-2.6,5.1-2.7C790.2,886.8,788.5,887.7,785.5,887.7z M805.2,895.3&#10;&#9;&#9;c-1.4,2-6.4,3-1.7,5.2c0.1,1.6-4.3,0.1-6.1,0.4C797.5,897.3,802,896.8,805.2,895.3z M801.9,879.5c3.9,5.9-14.4,0.7-12.2,2.4&#10;&#9;&#9;c-2.6-0.2-0.2-3.2-0.8-4.5C793,879.7,796.3,879.1,801.9,879.5z M797.6,874.1c-1,2,2.3,1.5,3.4,2.4c-0.9,1-2.7,1.3-4.9,1.3&#10;&#9;&#9;c0.7-1.5-0.6-2-0.9-3c-2-0.4-2.3,0.5-2.5,1.4c-0.7-1.5-7.2,0.1-5.8-2.5C788.8,872.5,792.7,874.5,797.6,874.1z M794.9,850.8&#10;&#9;&#9;c-0.2,2.3-4.4,1.6-7.4,1.9C788.7,851.1,791.2,850.5,794.9,850.8z M788.7,866.1c3.6-1,0.7-2.3,2.7-3.6c1.3,1.2,3.3,2,3.2,3.9&#10;&#9;&#9;c-4.3-0.4-4.6,2-8.6,1.8c-4.2-1.8,2-4.8-5.6-4.8C783.1,861.7,788.7,864.2,788.7,866.1z M771.1,848.1c-0.5,2-1.9,3.4-4,4.3&#10;&#9;&#9;c4,1.2,8.7,3.1,5.4,6.2c-3.6-2.4-8.2-2.5-11.7-3.5c3.5-3.1-1.9-2.4-1.9-5.3C765.8,851.2,765,847.2,771.1,848.1z M767.6,847.2&#10;&#9;&#9;c-4.6-1-7.1,1.3-9.6-0.5c0-2.7,5.8-1.2,5.2-4.2C766.1,843.3,768.2,844.5,767.6,847.2z M767.4,836c-3.2,0.1-5.1-0.5-4.6-2.5&#10;&#9;&#9;C765.9,833.4,767.9,834,767.4,836z M764,820.1c-0.2,1.7-0.3,3.5-0.5,5.2c-4-0.4-4.5-2.7-5.6-4.8C759.4,820,761.3,819.7,764,820.1z&#10;&#9;&#9; M753.6,829.3c3.8,0.8,4,3.1,8.2,1.9c-1.1,2.7-6.2,2.5-11,2.5C749.7,830.8,753.9,831.7,753.6,829.3z M748.4,832.8&#10;&#9;&#9;c-1,2.2-2.5-0.8-4.8-0.2c2.4,3.4,11.3,8.4,4.9,12.2c-4.3-1.4-6-4.3-11.6-5c0.8-5.4-5.8-6.8-7.4-10.8c2.3-0.5,4.5-1,7.3-1.1&#10;&#9;&#9;c0.7-1.6-1.6-1.5-3.5-1.7c0-3.7,4.7-4,7.7-5.6C746.6,823.5,746.1,829.6,748.4,832.8z M744.1,801.2c-1.6,1-5.3,0.5-8.4,0.4&#10;&#9;&#9;c0.1-1,0.2-2,0.3-3c-3.8-0.3-5.2,1.1-9.7,0.3c-0.4-1.5-3.3-1.5-2-3.8c4.9-0.5,7.1-2.3,12.1-0.9c-0.3,0.9-2.2,0.5-3.7,0.6&#10;&#9;&#9;c0.9,1.2,2.9,1.7,5.9,1.8c3.3-0.5-3.5-1.8,0.3-3c1.6,0.1,3.2,0.1,4.8,0.2C743.7,796.3,745.1,798.1,744.1,801.2z M751,791.1&#10;&#9;&#9;c-2.6-1.4,0.1-5.7-0.5-8.3C752,784.8,753.7,789.1,751,791.1z M782.9,784.4c1.9,0.2,4.6-0.1,4.7,1C788.7,788,780.1,787,782.9,784.4z&#10;&#9;&#9; M781.9,768.6c-2.7-0.6-3-2.6-5.7-3.3C779,763.2,781.9,767,781.9,768.6z M780.4,785c-0.3,0.8,0.1,1.3,1.1,1.5&#10;&#9;&#9;c-3.2,1.7-8.5,1.9-14.6,1.5c1.4-0.8,1.2-1.5-1.1-1.5c0.5-1,2.2-1.1,2.6-2.1c-5.8,2.2-6-1.3-12,0.2c3.2,0.6,3.1,3,6.9,3.3&#10;&#9;&#9;c-3.8,0.6-5.3-0.2-8.6,1.8c1.8-2.1-0.4-3.3,0.6-6.7c4.1-0.4,11.5-7.1,13.4-1.6c-1.6-0.1-3.2-0.2-4.8-0.2c1.1,1.8,7.5,0.6,10.7,1.3&#10;&#9;&#9;C772.9,785.3,777.3,784.8,780.4,785z M771.4,765.9c-4.9-0.7-8.5,0-10.5-3.5C767,762.1,769.4,763.9,771.4,765.9z M757.9,769&#10;&#9;&#9;c-5,1.3,0.2,2.4,0.8,4.5c3.3,0.8,3.2-0.9,6.1-0.5c-0.7,1.4-3.6,1.2-2.7,3.6c2.5-0.8,4.3-2.2,5.2-4.2c2,0.1,4,0.2,6,0.3&#10;&#9;&#9;c-2.8,1.4,0.4,2.2-0.4,4.5c-9.9,1.2-15.5,0.9-24.1,0.3C751.2,774.3,749.8,768.3,757.9,769z M748.4,793.9c-4.3-4.3-4.6-10.7-6.9-16&#10;&#9;&#9;C747,780.4,745,788.5,748.4,793.9z M742.9,788.4c-2.2,2.3,1.8,4.1-2.8,4.3c3.4-1.6-2.8-3.5-2.4-0.1&#10;&#9;&#9;C733.3,791.8,737.6,787.3,742.9,788.4z M719.4,768.6c3.2,0.2,6.4,0.3,9.6,0.5c-0.4,1.9,1.6,2.4,3.3,3.1&#10;&#9;&#9;C728.9,774.9,717.1,773.4,719.4,768.6z M710.2,764.5c2.9,0.4,2.7-1.2,6-0.5C717.8,766.4,709,767.2,710.2,764.5z M709.7,770.4&#10;&#9;&#9;c1.7-0.8,8.3-0.3,8.2,1.9C715.2,771.6,708.4,773.2,709.7,770.4z M693.3,777.8c1.4-2,3.1,1.3,4.9-0.5c0.3-1.3-1.3-1.6-0.9-3&#10;&#9;&#9;c13.4-3.6,22.4,1.2,38.4,0.3c-4.5,2.1-0.1,2,0.8,4.5c-3.6-0.2-3.1,2.5-7.4,1.9c2.5-3.6-7.7-0.4-8.5,1.1c-2.1-0.7-0.1-1.4,0.2-2.2&#10;&#9;&#9;c-3.6-0.7-2.5,1.9-6.1,1.2c3.3,3.3,0.3,3.6-4.1,5c5.5,0.1,3,4.5,8,4.9c-5,2.4-11.4-1.7-14.4-0.7c0.6-0.6,1.2-1.3,2.5-1.4&#10;&#9;&#9;c-1.7-1.2-5.2-1.5-8.2-1.9c-2.5,0.1-0.6,3.3-2.7,3.6c-3.6-1.1-11-0.2-10.5-3.5c5.8,1.1,8.2-1.5,10.9-1c0.4-1,0.8-2.6,5.1-2.7&#10;&#9;&#9;c-1.1-1.1-3.1-1.6-4.6-2.5c-1.6,0.1-1.2,1.8-1.5,2.9c-5.2-0.6,2.3-3.8-4.5-3.2C688.9,778.3,696.8,778.9,693.3,777.8z M683.4,781.9&#10;&#9;&#9;c-0.8-2.4,3.2-1.4,3.9-2.8C691.6,779.8,687.6,782.6,683.4,781.9z M684.6,755c2.3,0.2,0.6,2.5,3.4,2.4c-2,1.7-5.2-1.9-8.2-1.9&#10;&#9;&#9;C679.4,753.4,684.1,757.6,684.6,755z M680.3,789.2c0.1-0.7,0.1-1.5,0.2-2.2c2,0.8,4,1.6,3.3,3.9c-3.7,0.4-4.3-1-7.1-1.1&#10;&#9;&#9;C676.9,788.9,678.9,789.2,680.3,789.2z M682.3,793.8c2.3,0.7,4.1,2.8,2.1,3.8c-1.9-0.4-0.8-2.4-4.6-1.7c1,2.8,5.2,3.8,7.9,5.6&#10;&#9;&#9;c-0.3,1.6-5.1,0.1-7.3,0.4c-2.1-2.1-0.1-6.5-5.4-7C674.9,792.8,682.3,795.9,682.3,793.8z M553.5,848.2c-1.1,0.3-2.2,0.6-2.5,1.4&#10;&#9;&#9;c2.5,1.5,8.2,1.2,10.6,2.7c-2.1,3.7-9.7-2.5-9.9,2.5c-6-2.5-5.9,1.9-9.6,0.3c1.5-1.8,3.6-3.2,4.1-5.8c-3.5-0.9-2.3,1.6-2.7,2.9&#10;&#9;&#9;c-1.6-0.1-3.2-0.2-4.8-0.2c-2.8-4.2,1.9-5.5-1.4-10.5c-2.4,0.7-0.7,4.3-4,4.3c-2.5-4.4,6.8-7.3,11.7-9.2c-0.3,3.1,2.7,2.3,3,6.1&#10;&#9;&#9;c2.9,0.4,2.7-1.2,6.1-0.5c0.5,1.1,1.6,1.9,2.1,3.1c-0.7,1.1-1.2,0-1.1-0.8c-1,0.6-3.3,0.3-3.7,1.3c0.4,1.7,5.9,0.6,8.3,1.2&#10;&#9;&#9;c1.5-2.7-2.8-2.3-2-4.6c11.6,1.7,5.5,5.3,8.6,10.9c-1.9-1.6-6.8-1.5-5.6-4.8C557.5,849.1,555.4,850.9,553.5,848.2z M571.5,848.3&#10;&#9;&#9;c-2.7-0.6-4.9-1.6-4.5-4c1.2,0.1,2.4,0.1,3.6,0.2C569.5,846.6,572.1,846.5,571.5,848.3z M572.9,846.1c0.2-1.1,0.4-2.1-1-2.3&#10;&#9;&#9;c2-0.8,4.5-0.5,7.2,0.3C577.9,845.4,576.6,846.7,572.9,846.1z M581.9,787.5c4,0.4,3,3.5,3,6.1c-3.7,0.4-2.1-2.2-5.8-1.8&#10;&#9;&#9;C582.5,790.4,579.6,789.4,581.9,787.5z M566.2,800.9c4,0.4,10.5-0.5,9.4,2.7c1.2-3.1,8.3-2,8.9-5.6c2.4,1,0.4,5.5-2.9,5.1&#10;&#9;&#9;c3,2.2,6.7,0.4,9.4,1.9c-1.6,4.7-12.4,5.6-15.8,1.5c-4.6,0.2,1,3.2-5.1,2.7c3.2-2.9-0.8-3.7-0.6-6.7c-1.7,1.2-4.1,1.8-7.4,1.9&#10;&#9;&#9;C562.3,802.4,566,802.9,566.2,800.9z M556.9,823.7c5,0.9,2,2.5,4.3,5.4c-4.9-0.4-8.5-1.5-9.2-4.2&#10;&#9;&#9;C555.8,824.7,557.1,827.2,556.9,823.7z M547.2,811.3c1.2,0.1,2.4,0.1,3.6,0.2c-0.2,2.2-3.3,2.4-4,4.3&#10;&#9;&#9;C543.6,814.9,548.7,813.5,547.2,811.3z M531.6,811.3c2.8,0.6,5.4,1.3,9.5,1.2c-1.1,2.4-6.9,1.5-9.8,2.5&#10;&#9;&#9;C532.3,812.7,532.2,813.6,531.6,811.3z M539.6,829.6c-0.8-2.7,0-1.8-0.8-4.5c5,0.8-1.4-2.9,3.9-2.8c3.7,0.1,3.4,2.4,3.2,4.6&#10;&#9;&#9;c-4.2,0.1-5.2,1.3-3.9,3.6c-6.3-1.3-6.3,1.9-12.1,0.9C531.1,829.4,536,829.9,539.6,829.6z M509,861c-0.3-1.8,2.3-1.5,1.5-3.7&#10;&#9;&#9;C513.7,857.3,514.3,862.6,509,861z M513.3,853.7c-5.3-0.1-2.8-2.8-0.8-3.8C515,850,512.7,852.6,513.3,853.7z M506.8,846&#10;&#9;&#9;c4.2-1.3,12.2,1.4,12.8,4.3c-3.9,3-8.8-5.8-10.9,0.2c-2.4-0.3,0-3.3-3.3-3.2C506.2,846.7,508.9,846.4,506.8,846z" style="clip-path: url('#SVGID_2_'); fill: rgb(20, 55, 76);"/>
	<path d="M 31.1 28.1 H 1371.1 V 945.899988 H 31.1 V 28.1 Z" class="st12" style="clip-path: url('#SVGID_2_'); fill: none;"/>
	
	
	
	
	
	
	
	
	
	
	
	
</g></g></svg>