<?xml version="1.0" encoding="utf-8"?>
<svg id="master-artboard" viewBox="0 0 1043.732421875 857.9548950195312" version="1.1" xmlns="http://www.w3.org/2000/svg" x="0px" y="0px" style="enable-background:new 0 0 1400 980;" width="1043.732421875px" height="857.9548950195312px" xmlns:xlink="http://www.w3.org/1999/xlink"><rect id="ee-background" x="0" y="0" width="1043.732421875" height="857.9548950195312" style="fill: white; fill-opacity: 0; pointer-events: none;"/>



<g transform="matrix(0.854832649230957, 0, 0, 0.854832649230957, -30.03225690207546, 44.30276870727539)"><rect id="rect-1" x="0" y="0" width="1293" height="900" style="fill: white; fill-opacity: 0; pointer-events: none;"/><g transform="matrix(0.9183673469387755, 0, 0, 0.9183673469387755, 3.642849691465699, 0.0000037444456211233046)"><g>
	<defs>
		<path d="M 25 15 H 1375 V 965 H 25 V 15 Z" id="SVGID_1_"/>
	</defs>
	<clipPath id="SVGID_2_">
		<use style="overflow:visible;" xlink:href="#SVGID_1_"/>
	</clipPath>
	<linearGradient id="SVGID_3_" gradientUnits="userSpaceOnUse" x1="705.9696" y1="978.5969" x2="705.9696" y2="18.1532">
		<stop offset="0" style="stop-color:#FFFFFF"/>
		<stop offset="0.12" style="stop-color:#FBFDFF"/>
		<stop offset="0.2479" style="stop-color:#EEF7FF"/>
		<stop offset="0.3794" style="stop-color:#D9EDFF"/>
		<stop offset="0.5135" style="stop-color:#BBDEFF"/>
		<stop offset="0.6481" style="stop-color:#95CCFF"/>
		<stop offset="0.7152" style="stop-color:#7FC2FF"/>
	</linearGradient>
	
	<linearGradient id="SVGID_4_" gradientUnits="userSpaceOnUse" x1="723.6986" y1="814.7136" x2="723.6986" y2="285.0593">
		<stop offset="0" style="stop-color:#CCDEFF"/>
		<stop offset="0.213" style="stop-color:#C7DBFF"/>
		<stop offset="0.4519" style="stop-color:#BAD2FF"/>
		<stop offset="0.7031" style="stop-color:#A3C3FF"/>
		<stop offset="0.9614" style="stop-color:#84AFFF"/>
		<stop offset="1" style="stop-color:#7FABFF"/>
	</linearGradient>
	
	
		<linearGradient id="SVGID_5_" gradientUnits="userSpaceOnUse" x1="435.6361" y1="731.9606" x2="435.6361" y2="436.085" gradientTransform="matrix(-0.9969 0 0 1 909.977 0)">
		<stop offset="0" style="stop-color:#CCDEFF"/>
		<stop offset="0.213" style="stop-color:#C7DBFF"/>
		<stop offset="0.4519" style="stop-color:#BAD2FF"/>
		<stop offset="0.7031" style="stop-color:#A3C3FF"/>
		<stop offset="0.9614" style="stop-color:#84AFFF"/>
		<stop offset="1" style="stop-color:#7FABFF"/>
	</linearGradient>
	
	<path class="st4" d="M30.2,577.8c25,7.2,30.7-4.2,51-12.5c15.6-6.4,31.1-3,47.3-0.7c24,3.3,28.7-2.6,50.4-5&#10;&#9;&#9;c20.7-2.3,42.2,0.7,63-0.1c22.7-1,37.7-9.1,58-13.2c21.8-4.4,34.3,1,53.5-12.2c4.5-3.1,18.4-18.3,22.1-18.7&#10;&#9;&#9;c14.5-1.4,10,8.2,20.1,13.4c22.3,11.4,37.7,11.1,60.6,9.8c16.7-0.9,39.6,4.9,58,0.2c11.1-2.9,15.2-11.2,27.7-13.3&#10;&#9;&#9;c9-1.5,21.4,0.8,30.2,2.6c18.8,3.8,30.2,11.7,50.4,13.1c21.2,1.4,40.5-0.1,60.5,5.2c34.5,9.1,83.5,15.1,120.9,7.3&#10;&#9;&#9;c23-4.8,33.7-14.8,58-13.1c23.4,1.6,33.6-2.9,55.4-7.3c16.9-3.4,33-4.7,50.4-10.3c17-5.5,34.6-14.1,52.9-13.3c21.6,1,42.7,8,65.5,8&#10;&#9;&#9;c18.8,0,38.3-0.4,55.4,5.3c73.9,24.7,155.2,18.4,234.4,23.5l5,167.5L22.7,753.2" style="clip-path: url('#SVGID_2_'); fill: rgb(169, 208, 222);"/>
	
	
	
	
	
	<path d="M 31.1 28.1 H 1371.1 V 945.899988 H 31.1 V 28.1 Z" class="st12" style="clip-path: url('#SVGID_2_'); fill: none;"/>
	<g class="st5" style="clip-path: url('#SVGID_2_');">
		
	</g>
	
	
	
	
	
	
	
	
	
	
	
</g></g></g></svg>