<?xml version="1.0" encoding="utf-8"?>
<svg id="master-artboard" viewBox="0 0 1105.298583984375 857.9548950195312" version="1.1" xmlns="http://www.w3.org/2000/svg" x="0px" y="0px" style="enable-background:new 0 0 1400 980;" width="1105.298583984375px" height="857.9548950195312px" xmlns:xlink="http://www.w3.org/1999/xlink"><rect id="ee-background" x="0" y="0" width="1105.298583984375" height="857.9548950195312" style="fill: white; fill-opacity: 0; pointer-events: none;"/>



<g transform="matrix(0.898963451385498, 0, 0, 0.898963451385498, -27.029033660888672, 23.693080067634583)"><rect id="rect-1" x="0" y="0" width="1293" height="900" style="fill: white; fill-opacity: 0; pointer-events: none;"/><g transform="matrix(0.9183673469387755, 0, 0, 0.9183673469387755, 3.642849691465699, 0.0000037444456211233046)"><g>
	<defs>
		<path d="M 25 15 H 1375 V 965 H 25 V 15 Z" id="SVGID_1_"/>
	</defs>
	<clipPath id="SVGID_2_">
		<use style="overflow:visible;" xlink:href="#SVGID_1_"/>
	</clipPath>
	<linearGradient id="SVGID_3_" gradientUnits="userSpaceOnUse" x1="705.9696" y1="978.5969" x2="705.9696" y2="18.1532">
		<stop offset="0" style="stop-color:#FFFFFF"/>
		<stop offset="0.12" style="stop-color:#FBFDFF"/>
		<stop offset="0.2479" style="stop-color:#EEF7FF"/>
		<stop offset="0.3794" style="stop-color:#D9EDFF"/>
		<stop offset="0.5135" style="stop-color:#BBDEFF"/>
		<stop offset="0.6481" style="stop-color:#95CCFF"/>
		<stop offset="0.7152" style="stop-color:#7FC2FF"/>
	</linearGradient>
	
	<linearGradient id="SVGID_4_" gradientUnits="userSpaceOnUse" x1="723.6986" y1="814.7136" x2="723.6986" y2="285.0593">
		<stop offset="0" style="stop-color:#CCDEFF"/>
		<stop offset="0.213" style="stop-color:#C7DBFF"/>
		<stop offset="0.4519" style="stop-color:#BAD2FF"/>
		<stop offset="0.7031" style="stop-color:#A3C3FF"/>
		<stop offset="0.9614" style="stop-color:#84AFFF"/>
		<stop offset="1" style="stop-color:#7FABFF"/>
	</linearGradient>
	
	
		<linearGradient id="SVGID_5_" gradientUnits="userSpaceOnUse" x1="435.6361" y1="731.9606" x2="435.6361" y2="436.085" gradientTransform="matrix(-0.9969 0 0 1 909.977 0)">
		<stop offset="0" style="stop-color:#CCDEFF"/>
		<stop offset="0.213" style="stop-color:#C7DBFF"/>
		<stop offset="0.4519" style="stop-color:#BAD2FF"/>
		<stop offset="0.7031" style="stop-color:#A3C3FF"/>
		<stop offset="0.9614" style="stop-color:#84AFFF"/>
		<stop offset="1" style="stop-color:#7FABFF"/>
	</linearGradient>
	
	
	<g class="st5" style="clip-path: url('#SVGID_2_');">
		<path class="st6" d="M25.2,643.7c19.4,5,32.3-17.4,44.1-26c22.7-16.4,22-5.8,46.1-4.5c32.8,1.7,64.6-22.1,98.2-23.9&#10;&#9;&#9;&#9;c21.5-1.1,38.7-1.4,60,3.2c22.5,4.8,29.3,1.4,49.4-8.2c13.3-6.3,39.9-19.7,53.5-18.3c12.8,1.4,11.5,9.8,20.3,15.6&#10;&#9;&#9;&#9;c7.9,5.2,19.8,5.8,26.3,10.2c6.6,4.3,9.2,15.2,16.1,18.4c7,3.2,21.4,0.3,28.6,1.9c20,4.5,33.8,12.2,55.3,10.9&#10;&#9;&#9;&#9;c19.3-1.1,39-8,56.4-9.9c19.5-2.1,35.5,10,55.3,12.4c38.9,4.9,73.2-26.3,110-8.4c13.4,6.5,25.4,23.3,38.8,29.9&#10;&#9;&#9;&#9;c14.6,7.3,42.3,10.3,58.3,9.7c18.8-0.7,25.9-16.2,41.8-21.5c15.5-5.2,33.3,5.7,49.5,10.4c24.8,7.3,73.4,10.7,99.5,0.6&#10;&#9;&#9;&#9;c15.6-6,23.6-18.8,39.6-25.8c13.3-5.8,37.3-21.7,51.2-20.9c33.7,2,61.9,59.9,99.6,33.3c11.3-11.6,16.3-17.9,30-14.5&#10;&#9;&#9;&#9;c6.2,1.5,11.1,10.1,17,12.2c7.4,2.7,16.5-2.3,22.7,0.6c13.1,6.2,16.9,23.2,30.7,28c15.9,5.6,34.8-3.8,48.9,5.1l4.7,103.7&#10;&#9;&#9;&#9;L27.5,752.5" style="fill: rgb(107, 158, 181);"/>
		
		
	<path d="M 394.1887512207031 745.9701538085938 L 394.1887512207031 747.3885498046875" style="fill: rgb(107, 158, 181); fill-opacity: 1; stroke: rgb(0, 0, 0); stroke-opacity: 1; stroke-width: 0; paint-order: fill;"/></g>
	
	
	
	
	<path d="M 31.1 28.1 H 1371.1 V 945.899988 H 31.1 V 28.1 Z" class="st12" style="clip-path: url('#SVGID_2_'); fill: none;"/>
	
	
	
	
	
	
	
	
	
	
	
	
</g></g></g></svg>